<?xml version="1.0" standalone="no"?>
<!DOCTYPE svg PUBLIC "-//W3C//DTD SVG 1.1//EN" "http://www.w3.org/Graphics/SVG/1.1/DTD/svg11.dtd" >
<svg xmlns="http://www.w3.org/2000/svg">
<metadata>
Generated by SVGconv.
Copyright   : Copyright (c) 2012 by Vyacheslav Kirilenko, Gayane Bagdasaryan. All rights reserved.
Designer    : Vyacheslav Kirilenko, Gayane Bagdasaryan
Foundry     : Vyacheslav Kirilenko, Gayane Bagdasaryan
Foundry URL : http://www.brownfox.org
</metadata>
<defs>
<font id="Geometria-Light" horiz-adv-x="693" >
<font-face units-per-em="1000" ascent="949" descent="309" />
<missing-glyph horiz-adv-x="696" />
<glyph unicode="&#13;" horiz-adv-x="268" />
<glyph unicode="&#32;" horiz-adv-x="268" />
<glyph unicode="&#33;" horiz-adv-x="264" d="M105 700h54l-6 -492h-42zM94 35q0 16 11 27q11 11 27 11q16 0 27 -11q11 -11 11 -27q0 -16 -11 -27q-11 -11 -27 -11q-16 0 -27 11t-11 27z" />
<glyph unicode="&#34;" horiz-adv-x="343" d="M60 700h44v-237h-44zM240 700h43v-237l-43 0z" />
<glyph unicode="&#35;" horiz-adv-x="712" d="M181 198h-147l7 42h146l35 219h-147l8 42h145l33 199h44l-32 -199h213l31 199h45l-32 -199h148l-7 -42h-147l-35 -219h148l-7 -42h-148l-31 -198h-45l32 198h-212l-32 -198h-44zM445 240l34 219h-211l-36 -219z" />
<glyph unicode="&#36;" horiz-adv-x="623" d="M327 711q54 -3 101.5 -18.5q47.5 -15.5 85.5 -39.5l0 -49q-43 29 -95.5 46.5q-52.5 17.5 -114.5 17.5q-50 0 -85.5 -11q-35.5 -11 -58 -29q-22.5 -18 -33.5 -41.5q-11 -23.5 -11 -48.5q0 -38 17.5 -62q17.5 -24 47 -40.5q29.5 -16.5 66.5 -27.5q37 -11 76 -22q42 -12 83.5 -26.5q41.5 -14.5 74.5 -37q33 -22.5 53.5 -56q20.5 -33.5 20.5 -83.5q0 -45 -18.5 -80q-18.5 -35 -50 -59.5q-31.5 -24.5 -73 -38q-41.5 -13.5 -86.5 -16.5l0 -103h-47v103q-38 2 -72.5 9q-34.5 7 -64.5 17q-30 10 -54.5 22.5q-24.5 12.5 -40.5 25.5l0 53q17 -15 43 -30q26 -15 58.5 -27q32.5 -12 70.5 -19.5q38 -7.5 80 -7.5q45 0 83 10.5q38 10.5 65.5 30q27.5 19.5 43.5 47.5q16 28 16 63q0 39 -17 65q-17 26 -45.5 44q-28.5 18 -66.5 30q-38 12 -81 24q-49 14 -90.5 28.5q-41.5 14.5 -72 36q-30.5 21.5 -48 52q-17.5 30.5 -17.5 76.5q0 33 13 63q13 30 39.5 53.5q26.5 23.5 65.5 38q39 14.5 92 17.5l0 103l47 0z" />
<glyph unicode="&#37;" horiz-adv-x="822" d="M219 416q27 0 49.5 10q22.5 10 38.5 27.5q16 17.5 25 41q9 23.5 9 50.5q0 27 -9 50.5q-9 23.5 -25 41q-16 17.5 -38.5 27.5q-22.5 10 -49.5 10q-27 0 -50 -10q-23 -10 -39 -27.5q-16 -17.5 -25 -41q-9 -23.5 -9 -50.5q0 -27 9 -50.5q9 -23.5 25 -41q16 -17.5 39 -27.5q23 -10 50 -10zt0 0zM219 378q-36 0 -66 13q-30 13 -52 36q-22 23 -34 53q-12 30 -12 65q0 34 12 64.5q12 30.5 34 53.5q22 23 52 36q30 13 66 13q36 0 65.5 -13q29.5 -13 51.5 -36q22 -23 34 -53.5q12 -30.5 12 -64.5q0 -35 -12 -65q-12 -30 -34 -53q-22 -23 -51.5 -36q-29.5 -13 -65.5 -13zt0 0zM591 700h48l-407 -700h-48zM604 26q27 0 49.5 10q22.5 10 38.5 27.5q16 17.5 25 41q9 23.5 9 50.5q0 27 -9 50.5q-9 23.5 -25 41q-16 17.5 -38.5 27.5q-22.5 10 -49.5 10q-27 0 -50 -10q-23 -10 -39 -27.5q-16 -17.5 -25 -41q-9 -23.5 -9 -50.5q0 -27 9 -50.5q9 -23.5 25 -41q16 -17.5 39 -27.5q23 -10 50 -10zt0 0zM604 -12q-36 0 -66 13q-30 13 -52 36q-22 23 -34 53q-12 30 -12 65q0 34 12 64.5q12 30.5 34 53.5q22 23 52 36q30 13 66 13q36 0 65.5 -13q29.5 -13 51.5 -36q22 -23 34 -53.5q12 -30.5 12 -64.5q0 -35 -12 -65q-12 -30 -34 -53q-22 -23 -51.5 -36t-65.5 -13z" />
<glyph unicode="&#38;" horiz-adv-x="703" d="M496 605q-29 26 -69.5 45.5q-40.5 19.5 -94.5 19.5q-69 0 -109 -33q-40 -33 -40 -90q0 -44 22 -79.5q22 -35.5 60 -71.5l263 -252q64 91 69 227l45 0q-2 -70 -22.5 -137q-20.5 -67 -60.5 -121l119 -113h-63l-84 80q-41 -42 -97.5 -67q-56.5 -25 -129.5 -25q-47 0 -92 14q-45 14 -80.5 42q-35.5 28 -57.5 69.5q-22 41.5 -22 96.5q0 43 14.5 77.5q14.5 34.5 35.5 59.5q21 25 45.5 41q24.5 16 44.5 24q-23 26 -39 59.5q-16 33.5 -16 76.5q0 37 14.5 67.5q14.5 30.5 40 52q25.5 21.5 60 33q34.5 11.5 73.5 11.5q55 0 98.5 -16.5q43.5 -16.5 72.5 -39.5zM304 30q60 0 109 21q49 21 87 59l-279 269q-22 -7 -44 -21q-22 -14 -39.5 -35.5q-17.5 -21.5 -28.5 -50q-11 -28.5 -11 -62.5q0 -42 16 -75q16 -33 44 -56.5q28 -23.5 65.5 -36t80.5 -12.5z" />
<glyph unicode="&#39;" horiz-adv-x="164" d="M60 700h44v-237l-44 0z" />
<glyph unicode="&#40;" horiz-adv-x="351" d="M252 -206q-29 36 -56 82q-27 46 -48 102.5q-21 56.5 -33.5 124q-12.5 67.5 -12.5 147.5q0 79 12.5 146.5q12.5 67.5 33.5 124q21 56.5 48 102.5q27 46 56 83l50 0q-29 -38 -57.5 -83.5q-28.5 -45.5 -50.5 -102q-22 -56.5 -35.5 -123.5q-13.5 -67 -13.5 -147q0 -80 13.5 -147q13.5 -67 35.5 -123.5q22 -56.5 50.5 -102.5q28.5 -46 57.5 -83l-50 0z" />
<glyph unicode="&#41;" horiz-adv-x="351" d="M49 -206q29 37 57.5 83q28.5 46 50.5 102.5q22 56.5 35.5 123.5q13.5 67 13.5 147q0 80 -13.5 147q-13.5 67 -35.5 123.5q-22 56.5 -50.5 102q-28.5 45.5 -57.5 83.5l50 0q29 -37 56 -83q27 -46 48 -102.5q21 -56.5 33.5 -124q12.5 -67.5 12.5 -146.5q0 -80 -12.5 -147.5q-12.5 -67.5 -33.5 -124q-21 -56.5 -48 -102.5q-27 -46 -56 -82z" />
<glyph unicode="&#42;" horiz-adv-x="426" d="M196 494l-125 -76l-20 34l127 72l-127 71l20 35l125 -76l-2 146h39l-2 -146l125 76l19 -35l-127 -71l127 -72l-19 -34l-125 76l2 -146l-39 0z" />
<glyph unicode="&#43;" horiz-adv-x="607" d="M283 302h-213v42h213v213h42v-213h212v-42h-212v-212l-42 0z" />
<glyph unicode="&#44;" horiz-adv-x="222" d="M99 87h56l-93 -239l-39 0z" />
<glyph unicode="&#45;" horiz-adv-x="476" d="M103 290h270v-41l-270 0z" />
<glyph unicode="&#46;" horiz-adv-x="222" d="M73 35q0 16 11 27q11 11 27 11q16 0 27 -11q11 -11 11 -27q0 -16 -11 -27q-11 -11 -27 -11q-16 0 -27 11t-11 27z" />
<glyph unicode="&#47;" horiz-adv-x="499" d="M436 792h48l-421 -932l-48 0z" />
<glyph unicode="&#48;" horiz-adv-x="706" d="M353 -12q-63 0 -114.5 28q-51.5 28 -88.5 76.5q-37 48.5 -57.5 114.5q-20.5 66 -20.5 143q0 76 20.5 142q20.5 66 57.5 115q37 49 88.5 77q51.5 28 114.5 28q62 0 114 -28q52 -28 89 -77q37 -49 57.5 -115q20.5 -66 20.5 -142q0 -77 -20.5 -143q-20.5 -66 -57.5 -114.5q-37 -48.5 -89 -76.5q-52 -28 -114 -28zt0 0zM353 32q51 0 94 24q43 24 74.5 66.5q31.5 42.5 49 100.5q17.5 58 17.5 127q0 68 -17.5 126.5q-17.5 58.5 -49 101q-31.5 42.5 -74.5 66.5q-43 24 -94 24q-51 0 -94 -24q-43 -24 -74.5 -66.5q-31.5 -42.5 -49 -101q-17.5 -58.5 -17.5 -126.5q0 -69 17.5 -127q17.5 -58 49 -100.5q31.5 -42.5 74.5 -66.5t94 -24z" />
<glyph unicode="&#49;" horiz-adv-x="363" d="M199 650l-162 -99v47l165 102h43v-700l-46 0z" />
<glyph unicode="&#50;" horiz-adv-x="571" d="M46 36l247 239q35 34 62.5 63q27.5 29 46 57q18.5 28 28.5 57q10 29 10 63q0 33 -12.5 61.5q-12.5 28.5 -35 48.5q-22.5 20 -54.5 31.5q-32 11.5 -72 11.5q-35 0 -64.5 -8q-29.5 -8 -55 -21.5q-25.5 -13.5 -46.5 -31.5q-21 -18 -40 -38l0 57q33 33 84.5 59.5q51.5 26.5 125.5 26.5q47 0 87 -14q40 -14 69 -39.5q29 -25.5 45 -61.5q16 -36 16 -79q0 -37 -9.5 -69q-9.5 -32 -29 -62.5q-19.5 -30.5 -48.5 -63q-29 -32.5 -68 -70.5l-216 -210h399v-43l-470 0z" />
<glyph unicode="&#51;" horiz-adv-x="566" d="M242 -12q-63 0 -113.5 14q-50.5 14 -87.5 37l0 50q35 -26 86 -41.5q51 -15.5 111 -15.5q41 0 80 12q39 12 69.5 35.5q30.5 23.5 49 58q18.5 34.5 18.5 79.5q0 39 -15 72q-15 33 -42 56.5q-27 23.5 -66 36.5q-39 13 -87 13q-36 0 -70 -8l0 33l238 237h-340v43h404v-34l-231 -232q47 0 93 -13.5q46 -13.5 82 -40.5q36 -27 58 -68q22 -41 22 -95q0 -52 -20 -94q-20 -42 -55 -72q-35 -30 -82.5 -46.5t-101.5 -16.5z" />
<glyph unicode="&#52;" horiz-adv-x="627" d="M426 203h-387v38l389 459h44v-454h119v-43h-119v-203h-46zM426 246v388l-330 -388z" />
<glyph unicode="&#53;" horiz-adv-x="597" d="M257 -12q-59 0 -107 12.5q-48 12.5 -84 33.5l0 48q32 -20 81 -35q49 -15 109 -15q49 0 90.5 14q41.5 14 71.5 38.5q30 24.5 47 58.5q17 34 17 73q0 37 -15 69q-15 32 -43.5 56q-28.5 24 -68.5 37.5q-40 13.5 -90 13.5q-45 0 -87 -7q-42 -7 -81 -21l46 336h336v-43h-300l-33 -236q27 8 57 11.5q30 3.5 72 3.5q54 0 100.5 -16.5q46.5 -16.5 80 -45.5q33.5 -29 53 -69.5q19.5 -40.5 19.5 -88.5q0 -50 -20.5 -92q-20.5 -42 -57 -72q-36.5 -30 -86 -47t-107.5 -17z" />
<glyph unicode="&#54;" horiz-adv-x="638" d="M335 -12q-59 0 -107 21.5q-48 21.5 -82 63q-34 41.5 -52.5 102.5q-18.5 61 -18.5 140q0 84 21 157q21 73 59.5 126q38.5 53 94 83.5q55.5 30.5 124.5 30.5q39 0 77 -11q38 -11 68 -32l0 -45q-65 44 -142 44q-65 0 -113.5 -29q-48.5 -29 -80 -78q-31.5 -49 -47 -113q-15.5 -64 -15.5 -134q12 25 33 48.5q21 23.5 49 41q28 17.5 63 28q35 10.5 75 10.5q46 0 87.5 -16q41.5 -16 72.5 -45.5q31 -29.5 49 -70q18 -40.5 18 -89.5q0 -51 -18 -94q-18 -43 -49 -73.5q-31 -30.5 -74 -48q-43 -17.5 -92 -17.5zt0 0zM334 32q39 0 73 14q34 14 59.5 39q25.5 25 40.5 59.5q15 34.5 15 75.5q0 41 -15 74q-15 33 -41 56q-26 23 -61 35.5q-35 12.5 -74 12.5q-36 0 -68 -12q-32 -12 -59 -33q-27 -21 -47.5 -49q-20.5 -28 -31.5 -60q11 -98 62.5 -155t146.5 -57z" />
<glyph unicode="&#55;" horiz-adv-x="544" d="M442 657h-394v43h448v-34l-338 -666l-49 0z" />
<glyph unicode="&#56;" horiz-adv-x="646" d="M421 371q74 -18 118.5 -65q44.5 -47 44.5 -119q0 -45 -20 -82q-20 -37 -55.5 -63q-35.5 -26 -83 -40q-47.5 -14 -102.5 -14q-55 0 -103 14q-48 14 -83 40q-35 26 -55.5 63q-20.5 37 -20.5 82q0 72 44.5 119q44.5 47 119.5 65q-57 19 -92.5 60.5q-35.5 41.5 -35.5 101.5q0 40 17 73.5q17 33.5 47.5 56.5q30.5 23 72 36q41.5 13 89.5 13q48 0 89 -13q41 -13 71.5 -36q30.5 -23 47.5 -56.5q17 -33.5 17 -73.5q0 -60 -35 -101.5q-35 -41.5 -92 -60.5zt0 0zM144 530q0 -30 13.5 -55.5q13.5 -25.5 37.5 -44q24 -18.5 57 -29q33 -10.5 72 -10.5q38 0 70.5 10.5q32.5 10.5 56.5 29q24 18.5 37.5 44q13.5 25.5 13.5 55.5q0 31 -13.5 56.5q-13.5 25.5 -37.5 43.5q-24 18 -56.5 28q-32.5 10 -70.5 10q-39 0 -72 -10q-33 -10 -57 -28q-24 -18 -37.5 -43.5q-13.5 -25.5 -13.5 -56.5zt0 0zM322 32q45 0 84.5 12q39.5 12 68.5 33q29 21 45.5 50q16.5 29 16.5 63q0 35 -16.5 64q-16.5 29 -45.5 49.5q-29 20.5 -68.5 32q-39.5 11.5 -84.5 11.5q-45 0 -84 -11.5q-39 -11.5 -68 -32q-29 -20.5 -45.5 -49.5q-16.5 -29 -16.5 -64q0 -34 16.5 -63q16.5 -29 45.5 -50q29 -21 68 -33t84 -12z" />
<glyph unicode="&#57;" horiz-adv-x="638" d="M303 712q59 0 107 -21.5q48 -21.5 82 -63q34 -41.5 52.5 -102.5q18.5 -61 18.5 -140q0 -84 -21 -157q-21 -73 -59.5 -126q-38.5 -53 -94 -83.5q-55.5 -30.5 -124.5 -30.5q-39 0 -77 11q-38 11 -68 32l0 45q65 -44 142 -44q65 0 113.5 29q48.5 29 80 78q31.5 49 47 113q15.5 64 15.5 134q-12 -26 -33 -49q-21 -23 -49 -40.5q-28 -17.5 -63 -28q-35 -10.5 -75 -10.5q-46 0 -87.5 16q-41.5 16 -72.5 45.5q-31 29.5 -49 70q-18 40.5 -18 89.5q0 51 18 94q18 43 49 73.5q31 30.5 73.5 48q42.5 17.5 92.5 17.5zt0 0zM304 668q-39 0 -73.5 -14q-34.5 -14 -60 -39q-25.5 -25 -40 -59.5q-14.5 -34.5 -14.5 -75.5q0 -41 15 -74q15 -33 41 -56q26 -23 61 -35.5q35 -12.5 74 -12.5q36 0 68 12q32 12 59 33q27 21 47.5 49q20.5 28 31.5 60q-11 98 -62.5 155t-146.5 57z" />
<glyph unicode="&#58;" horiz-adv-x="222" d="M73 424q0 16 11 27q11 11 27 11q16 0 27 -11q11 -11 11 -27q0 -16 -11 -27q-11 -11 -27 -11q-16 0 -27 11q-11 11 -11 27zt0 0zM73 35q0 16 11 27q11 11 27 11q16 0 27 -11q11 -11 11 -27q0 -16 -11 -27q-11 -11 -27 -11q-16 0 -27 11t-11 27z" />
<glyph unicode="&#59;" horiz-adv-x="222" d="M99 87h56l-93 -239h-39zM75 424q0 16 11 27q11 11 27 11q16 0 27 -11q11 -11 11 -27q0 -16 -11 -27q-11 -11 -27 -11q-16 0 -27 11t-11 27z" />
<glyph unicode="&#60;" horiz-adv-x="607" d="M70 299v43l467 203v-45l-414 -180l414 -178l0 -46z" />
<glyph unicode="&#61;" horiz-adv-x="607" d="M70 229h467v-41h-467zM70 457h467v-41l-467 0z" />
<glyph unicode="&#62;" horiz-adv-x="607" d="M70 142l415 178l-415 180v45l467 -203v-43l-467 -203z" />
<glyph unicode="&#63;" horiz-adv-x="467" d="M184 351q31 7 64 21.5q33 14.5 59.5 36q26.5 21.5 43.5 49.5q17 28 17 63q0 32 -12.5 58.5q-12.5 26.5 -35 45.5q-22.5 19 -52.5 29.5q-30 10.5 -66 10.5q-52 0 -95.5 -18q-43.5 -18 -75.5 -42l0 46q31 24 76 40q45 16 99 16q42 0 79.5 -13q37.5 -13 66 -37.5q28.5 -24.5 45.5 -58.5q17 -34 17 -76q0 -38 -15.5 -69.5q-15.5 -31.5 -41.5 -56.5q-26 -25 -59.5 -42.5q-33.5 -17.5 -69.5 -28.5l0 -117h-44zM170 35q0 16 11 27q11 11 27 11q16 0 27 -11q11 -11 11 -27q0 -16 -11 -27q-11 -11 -27 -11q-16 0 -27 11t-11 27z" />
<glyph unicode="&#64;" horiz-adv-x="968" d="M485 -162q-89 0 -167 33q-78 33 -136.5 91.5q-58.5 58.5 -92.5 138.5q-34 80 -34 174q0 93 34 173q34 80 92.5 138.5q58.5 58.5 136.5 92q78 33.5 167 33.5q92 0 170.5 -32q78.5 -32 135.5 -87.5q57 -55.5 89.5 -130.5q32.5 -75 32.5 -161q0 -49 -11 -91.5q-11 -42.5 -32.5 -74q-21.5 -31.5 -52 -49.5q-30.5 -18 -69.5 -18q-26 0 -45.5 7.5q-19.5 7.5 -33 19q-13.5 11.5 -22.5 26q-9 14.5 -14 29.5q-9 -13 -24.5 -27.5q-15.5 -14.5 -36.5 -27q-21 -12.5 -46.5 -20.5q-25.5 -8 -55.5 -8q-45 0 -81.5 17q-36.5 17 -62.5 45.5q-26 28.5 -40 66q-14 37.5 -14 78.5q0 41 14 78.5q14 37.5 40 66q26 28.5 62.5 45.5q36.5 17 81.5 17q28 0 52.5 -7.5q24.5 -7.5 44.5 -18.5q20 -11 35 -25q15 -14 25 -26l0 62h44v-267q0 -54 24 -80q24 -26 62 -26q29 0 53.5 15.5q24.5 15.5 42 43.5q17.5 28 27 66.5q9.5 38.5 9.5 83.5q0 76 -28.5 146q-28.5 70 -81 123.5q-52.5 53.5 -127.5 85q-75 31.5 -167 31.5q-88 0 -162.5 -33q-74.5 -33 -128.5 -89q-54 -56 -84.5 -131q-30.5 -75 -30.5 -160q0 -86 30 -161q30 -75 84 -131q54 -56 128.5 -88.5q74.5 -32.5 163.5 -32.5q59 0 109 12q50 12 95 35l0 -24q-45 -23 -96 -35q-51 -12 -108 -12zt0 0zM480 110q45 0 85 25q40 25 62 62l0 154q-22 37 -62 62q-40 25 -85 25q-35 0 -64 -12.5q-29 -12.5 -51 -35q-22 -22.5 -34 -52.5q-12 -30 -12 -64q0 -34 12 -64q12 -30 34 -52q22 -22 51 -35t64 -13z" />
<glyph unicode="&#65;" horiz-adv-x="743" d="M351 704h43l316 -704h-48l-93 206h-394l-93 -206h-49zM552 246l-180 398l-181 -398z" />
<glyph unicode="&#66;" horiz-adv-x="719" d="M105 700h294q94 0 145 -45.5q51 -45.5 51 -123.5q0 -57 -25.5 -95q-25.5 -38 -71.5 -55q75 -11 117.5 -60.5q42.5 -49.5 42.5 -126.5q0 -43 -15 -79q-15 -36 -43.5 -61.5q-28.5 -25.5 -70.5 -39.5q-42 -14 -96 -14h-328zM426 43q88 0 135 40.5q47 40.5 47 114.5q0 74 -47 114.5q-47 40.5 -135 40.5h-275v-310zM393 393q75 0 116 34.5q41 34.5 41 97.5q0 63 -41 97.5q-41 34.5 -116 34.5h-242l0 -264z" />
<glyph unicode="&#67;" horiz-adv-x="693" d="M427 -12q-74 0 -138.5 27q-64.5 27 -112 75q-47.5 48 -74.5 114.5q-27 66.5 -27 145.5q0 79 27 145.5q27 66.5 74.5 114.5q47.5 48 111.5 75q64 27 139 27q114 0 200 -55l0 -50q-44 29 -92.5 45q-48.5 16 -106.5 16q-64 0 -120 -24q-56 -24 -97 -66q-41 -42 -65 -100.5q-24 -58.5 -24 -127.5q0 -69 24 -127.5q24 -58.5 65 -100.5q41 -42 97 -66q56 -24 121 -24q63 0 116.5 19q53.5 19 97.5 54l0 -51q-87 -66 -216 -66z" />
<glyph unicode="&#68;" horiz-adv-x="774" d="M105 700h217q84 0 153.5 -25.5q69.5 -25.5 119 -71.5q49.5 -46 77 -110.5q27.5 -64.5 27.5 -142.5q0 -78 -27.5 -142.5q-27.5 -64.5 -77 -110.5q-49.5 -46 -119 -71.5q-69.5 -25.5 -153.5 -25.5h-217zM314 43q79 0 141.5 22q62.5 22 106 62.5q43.5 40.5 67 97q23.5 56.5 23.5 125.5q0 69 -23.5 125.5q-23.5 56.5 -67 97q-43.5 40.5 -106 62.5q-62.5 22 -141.5 22h-163l0 -614z" />
<glyph unicode="&#69;" horiz-adv-x="637" d="M105 700h468v-43h-422v-259h349v-43h-349v-312h438v-43l-484 0z" />
<glyph unicode="&#70;" horiz-adv-x="617" d="M105 700h463v-43h-417v-268h346v-43h-346v-346l-46 0z" />
<glyph unicode="&#71;" horiz-adv-x="782" d="M426 -12q-74 0 -138 27q-64 27 -111.5 75q-47.5 48 -74.5 114.5q-27 66.5 -27 145.5q0 79 27 145.5q27 66.5 74 114.5q47 48 111.5 75q64.5 27 138.5 27q65 0 123.5 -18.5q58.5 -18.5 104.5 -54.5l0 -49q-49 38 -107 58q-58 20 -118 20q-65 0 -121 -23.5q-56 -23.5 -97.5 -66q-41.5 -42.5 -65 -101q-23.5 -58.5 -23.5 -128.5q0 -69 23.5 -127.5q23.5 -58.5 65 -100.5q41.5 -42 97 -65.5q55.5 -23.5 118.5 -23.5q66 0 123.5 20.5q57.5 20.5 97.5 62.5l0 286h46v-303q-44 -48 -111.5 -79t-155.5 -31z" />
<glyph unicode="&#72;" horiz-adv-x="760" d="M105 700h46v-302h457v302h46v-700h-46v355h-457v-355l-46 0z" />
<glyph unicode="&#73;" horiz-adv-x="269" d="M112 700h46v-700l-46 0z" />
<glyph unicode="&#74;" horiz-adv-x="503" d="M195 -12q-45 0 -85 11.5q-40 11.5 -73 35.5l0 51q29 -26 69 -40q40 -14 82 -14q173 0 173 182v486h46v-493q0 -112 -56 -165.5t-156 -53.5z" />
<glyph unicode="&#75;" horiz-adv-x="638" d="M105 700h46v-309l356 309h65l-369 -321l425 -379h-70l-407 364v-364l-46 0z" />
<glyph unicode="&#76;" horiz-adv-x="592" d="M105 700h46v-657h407v-43l-453 0z" />
<glyph unicode="&#77;" horiz-adv-x="847" d="M105 700h47l272 -357l272 357h45v-700h-46v629l-256 -336h-30l-258 336v-629l-46 0z" />
<glyph unicode="&#78;" horiz-adv-x="775" d="M105 700h41l477 -620v620h46v-700h-40l-478 621v-621l-46 0z" />
<glyph unicode="&#79;" horiz-adv-x="846" d="M423 32q63 0 118 24q55 24 95.5 66.5q40.5 42.5 64 100.5q23.5 58 23.5 127q0 69 -23.5 127q-23.5 58 -64 100.5q-40.5 42.5 -95.5 66.5q-55 24 -118 24q-63 0 -118 -24q-55 -24 -95.5 -66.5q-40.5 -42.5 -64 -100.5q-23.5 -58 -23.5 -127q0 -69 23.5 -127q23.5 -58 64 -100.5q40.5 -42.5 95.5 -66.5q55 -24 118 -24zt0 0zM423 -12q-74 0 -138 27.5q-64 27.5 -110.5 75.5q-46.5 48 -73 114.5q-26.5 66.5 -26.5 144.5q0 78 26.5 144q26.5 66 73 114.5q46.5 48.5 110.5 76q64 27.5 138 27.5q74 0 137.5 -27.5q63.5 -27.5 110.5 -76q47 -48.5 73.5 -114.5q26.5 -66 26.5 -144q0 -78 -26.5 -144.5q-26.5 -66.5 -73.5 -114.5q-47 -48 -110.5 -75.5t-137.5 -27.5z" />
<glyph unicode="&#80;" horiz-adv-x="665" d="M105 700h291q52 0 92.5 -14q40.5 -14 68 -38.5q27.5 -24.5 41.5 -59q14 -34.5 14 -76.5q0 -42 -14 -76.5q-14 -34.5 -41.5 -59.5q-27.5 -25 -68 -39q-40.5 -14 -92.5 -14h-245v-323h-46zM392 366q83 0 128.5 38q45.5 38 45.5 108q0 69 -45.5 107q-45.5 38 -128.5 38h-241l0 -291z" />
<glyph unicode="&#81;" horiz-adv-x="846" d="M423 -12q-74 0 -138 27.5q-64 27.5 -110.5 75.5q-46.5 48 -73 114.5q-26.5 66.5 -26.5 144.5q0 78 26.5 144q26.5 66 73 114.5q46.5 48.5 110.5 76q64 27.5 138 27.5q74 0 137.5 -27.5q63.5 -27.5 110.5 -76q47 -48.5 73.5 -114.5q26.5 -66 26.5 -144q0 -64 -18 -120.5q-18 -56.5 -51 -101.5q-33 -45 -78.5 -77.5q-45.5 -32.5 -99.5 -48.5q35 -38 69.5 -56q34.5 -18 72.5 -18q50 0 83 24l0 -47q-17 -9 -37.5 -14.5q-20.5 -5.5 -47.5 -5.5q-56 0 -102 30q-46 30 -90 77q-12 -2 -24.5 -3q-12.5 -1 -24.5 -1zt0 0zM423 32q63 0 118 24q55 24 95.5 66.5q40.5 42.5 64 100.5q23.5 58 23.5 127q0 69 -23.5 127q-23.5 58 -64 100.5q-40.5 42.5 -95.5 66.5q-55 24 -118 24q-63 0 -118 -24q-55 -24 -95.5 -66.5q-40.5 -42.5 -64 -100.5q-23.5 -58 -23.5 -127q0 -69 23.5 -127q23.5 -58 64 -100.5q40.5 -42.5 95.5 -66.5t118 -24z" />
<glyph unicode="&#82;" horiz-adv-x="736" d="M105 700h310q103 0 158 -51q55 -51 55 -133q0 -74 -44.5 -124q-44.5 -50 -129.5 -60l230 -332h-54l-229 329h-250v-329h-46zM411 372q81 0 126 37q45 37 45 106q0 68 -45 105q-45 37 -126 37h-260l0 -285z" />
<glyph unicode="&#83;" horiz-adv-x="623" d="M304 -12q-42 0 -80.5 6.5q-38.5 6.5 -71.5 17q-33 10.5 -59.5 24q-26.5 13.5 -44.5 27.5l0 53q17 -15 43 -30q26 -15 58.5 -27q32.5 -12 70.5 -19.5q38 -7.5 80 -7.5q45 0 83 10.5q38 10.5 65.5 30q27.5 19.5 43.5 47.5q16 28 16 63q0 39 -17 65q-17 26 -45.5 44q-28.5 18 -66.5 30q-38 12 -81 24q-49 14 -90.5 28.5q-41.5 14.5 -72 36q-30.5 21.5 -48 52q-17.5 30.5 -17.5 76.5q0 35 14.5 66.5q14.5 31.5 43.5 55q29 23.5 72.5 37.5q43.5 14 101.5 14q62 0 116 -16q54 -16 96 -43l0 -49q-43 29 -95.5 46.5q-52.5 17.5 -114.5 17.5q-50 0 -85.5 -11q-35.5 -11 -58 -29q-22.5 -18 -33.5 -41.5q-11 -23.5 -11 -48.5q0 -38 17.5 -62q17.5 -24 47 -40.5q29.5 -16.5 66.5 -27.5q37 -11 76 -22q42 -12 83.5 -26.5q41.5 -14.5 74.5 -37q33 -22.5 53.5 -56q20.5 -33.5 20.5 -83.5q0 -48 -21 -84.5q-21 -36.5 -55.5 -61q-34.5 -24.5 -80 -37t-94.5 -12.5z" />
<glyph unicode="&#84;" horiz-adv-x="620" d="M287 657h-251v43h548v-43h-251v-657l-46 0z" />
<glyph unicode="&#85;" horiz-adv-x="747" d="M374 -12q-62 0 -113 20q-51 20 -88.5 59.5q-37.5 39.5 -58 97.5q-20.5 58 -20.5 134v401h46v-401q0 -64 16.5 -113.5q16.5 -49.5 46.5 -83.5q30 -34 73.5 -52q43.5 -18 97.5 -18q108 0 170.5 69.5q62.5 69.5 62.5 197.5v401h46v-401q0 -76 -21 -134q-21 -58 -58 -97.5q-37 -39.5 -88 -59.5t-112 -20z" />
<glyph unicode="&#86;" horiz-adv-x="748" d="M39 700h51l285 -639l284 639h50l-314 -704l-42 0z" />
<glyph unicode="&#87;" horiz-adv-x="1041" d="M45 700h52l214 -627l190 629h39l191 -629l214 627h51l-244 -704h-42l-189 622l-192 -622l-40 0z" />
<glyph unicode="&#88;" horiz-adv-x="698" d="M321 380l-238 320h56l211 -282l211 282h55l-239 -319l286 -381h-57l-257 343l-257 -343l-54 0z" />
<glyph unicode="&#89;" horiz-adv-x="646" d="M299 324l-273 376h56l241 -332l242 332h53l-273 -375v-325l-46 0z" />
<glyph unicode="&#90;" horiz-adv-x="639" d="M54 33l454 624h-427v43h488v-33l-450 -624h466v-43l-531 0z" />
<glyph unicode="&#91;" horiz-adv-x="370" d="M100 706h230v-40h-187v-832h187v-40l-230 0z" />
<glyph unicode="&#92;" horiz-adv-x="498" d="M17 792h48l421 -932l-48 0z" />
<glyph unicode="&#93;" horiz-adv-x="370" d="M270 -206h-230v40h187v832h-187v40l230 0z" />
<glyph unicode="&#94;" horiz-adv-x="502" d="M229 708h43l169 -359h-44l-146 314l-145 -314l-46 0z" />
<glyph unicode="&#95;" horiz-adv-x="608" d="M8 -83h592v-36l-592 0z" />
<glyph unicode="&#96;" horiz-adv-x="522" d="M176 707h62l96 -130l-49 0z" />
<glyph unicode="&#97;" horiz-adv-x="589" d="M246 30q32 0 60.5 8.5q28.5 8.5 52.5 22q24 13.5 43 30.5q19 17 32 34l0 79q-13 9 -31.5 18.5q-18.5 9.5 -41 18q-22.5 8.5 -48.5 14q-26 5.5 -54 5.5q-77 0 -120 -31.5q-43 -31.5 -43 -83.5q0 -31 13 -53q13 -22 34 -35.5q21 -13.5 48 -20q27 -6.5 55 -6.5zt0 0zM233 -12q-35 0 -68 10q-33 10 -59 29.5q-26 19.5 -41.5 48.5q-15.5 29 -15.5 68q0 36 15.5 65q15.5 29 42 49q26.5 20 62.5 31q36 11 78 11q66 0 112 -17.5q46 -17.5 75 -34.5l0 63q0 71 -46 103.5q-46 32.5 -124 32.5q-52 0 -94.5 -17q-42.5 -17 -67.5 -34l0 46q24 16 67 31.5q43 15.5 103 15.5q43 0 81 -10q38 -10 66 -31q28 -21 44 -54q16 -33 16 -79v-212q0 -32 14 -50q14 -18 38 -18q16 0 28 6l0 -37q-8 -5 -18.5 -6.5q-10.5 -1.5 -20.5 -1.5q-29 0 -54 19q-25 19 -28 64q-32 -37 -82.5 -64t-122.5 -27z" />
<glyph unicode="&#98;" horiz-adv-x="630" d="M332 -12q-67 0 -117 27q-50 27 -80 69l0 -84h-45v700h45v-308q30 42 80 69.5q50 27.5 117 27.5q55 0 100 -20.5q45 -20.5 77 -55.5q32 -35 49 -80.5q17 -45.5 17 -94.5q0 -50 -17 -95q-17 -45 -49 -79.5q-32 -34.5 -77 -55q-45 -20.5 -100 -20.5zt0 0zM324 30q44 0 81.5 16q37.5 16 65 44q27.5 28 43 66q15.5 38 15.5 82q0 44 -15.5 82.5q-15.5 38.5 -43 66.5q-27.5 28 -65 44q-37.5 16 -81.5 16q-31 0 -60 -9q-29 -9 -54 -25q-25 -16 -44 -38q-19 -22 -31 -47l0 -180q12 -26 31 -47.5q19 -21.5 44 -37.5q25 -16 54 -24.5t60 -8.5z" />
<glyph unicode="&#99;" horiz-adv-x="524" d="M306 -12q-56 0 -102 20q-46 20 -79 54q-33 34 -51.5 79.5q-18.5 45.5 -18.5 97.5q0 51 18.5 96.5q18.5 45.5 51.5 79.5q33 34 79.5 54q46.5 20 102.5 20q42 0 78.5 -10q36.5 -10 65.5 -27l0 -44q-32 19 -67.5 29q-35.5 10 -71.5 10q-45 0 -83.5 -16q-38.5 -16 -67 -44q-28.5 -28 -44.5 -66q-16 -38 -16 -83q0 -45 16 -83q16 -38 44.5 -65.5q28.5 -27.5 67 -43.5q38.5 -16 83.5 -16q44 0 80.5 11.5q36.5 11.5 67.5 33.5l0 -45q-32 -21 -71 -31.5t-83 -10.5z" />
<glyph unicode="&#100;" horiz-adv-x="631" d="M298 -12q-56 0 -100.5 20.5q-44.5 20.5 -76.5 55q-32 34.5 -49 79.5q-17 45 -17 95q0 49 17 94.5q17 45.5 49 80.5q32 35 76.5 55.5q44.5 20.5 100.5 20.5q67 0 117 -27.5q50 -27.5 80 -69.5l0 308h45v-700h-45v84q-30 -42 -80 -69q-50 -27 -117 -27zt0 0zM306 30q31 0 60 8.5q29 8.5 54 24.5q25 16 44 37.5q19 21.5 31 47.5l0 180q-12 25 -31 47q-19 22 -44 38q-25 16 -54 25q-29 9 -60 9q-44 0 -81.5 -16q-37.5 -16 -65 -44q-27.5 -28 -43 -66.5q-15.5 -38.5 -15.5 -82.5q0 -44 15.5 -82q15.5 -38 43 -66q27.5 -28 65 -44t81.5 -16z" />
<glyph unicode="&#101;" horiz-adv-x="567" d="M315 -12q-56 0 -103.5 18.5q-47.5 18.5 -82 51.5q-34.5 33 -54.5 79q-20 46 -20 101q0 54 17 99.5q17 45.5 48.5 79.5q31.5 34 75 53q43.5 19 96.5 19q63 0 105 -24.5q42 -24.5 67.5 -61q25.5 -36.5 36.5 -79q11 -42.5 11 -77.5v-15h-412q1 -45 17.5 -82q16.5 -37 46 -64q29.5 -27 69.5 -41.5q40 -14.5 88 -14.5q47 0 86 12.5q39 12.5 68 32.5l0 -44q-24 -18 -66.5 -30.5q-42.5 -12.5 -93.5 -12.5zt0 0zM467 271q0 26 -9.5 56.5q-9.5 30.5 -30 57q-20.5 26.5 -54 44.5q-33.5 18 -82.5 18q-45 0 -79 -15.5q-34 -15.5 -58 -41q-24 -25.5 -37.5 -57q-13.5 -31.5 -15.5 -62.5z" />
<glyph unicode="&#102;" horiz-adv-x="374" d="M127 0v436h-99v41h99v95q0 62 32 98.5q32 36.5 94 36.5q52 0 93 -20l0 -43q-16 8 -36.5 14.5q-20.5 6.5 -47.5 6.5q-44 0 -67 -27q-23 -27 -23 -76v-85h174v-41h-174l0 -436z" />
<glyph unicode="&#103;" horiz-adv-x="630" d="M540 477v-456q0 -57 -19.5 -99q-19.5 -42 -53.5 -70q-34 -28 -80 -42q-46 -14 -99 -14q-51 0 -101 13.5q-50 13.5 -83 31.5l0 46q38 -23 86 -36q48 -13 95 -13q45 0 83.5 10.5q38.5 10.5 66.5 33q28 22.5 44 57q16 34.5 16 82.5v66q-30 -42 -80 -68.5q-50 -26.5 -116 -26.5q-56 0 -101 20.5q-45 20.5 -76.5 54.5q-31.5 34 -49 79q-17.5 45 -17.5 95q0 49 17.5 94q17.5 45 49 79q31.5 34 76.5 54.5q45 20.5 101 20.5q66 0 116 -26.5q50 -26.5 80 -68.5l0 83zM495 330q-23 52 -74 84.5q-51 32.5 -113 32.5q-45 0 -82.5 -15.5q-37.5 -15.5 -65.5 -43.5q-28 -28 -43.5 -65.5q-15.5 -37.5 -15.5 -81.5q0 -44 15.5 -82q15.5 -38 43.5 -66q28 -28 65.5 -43.5q37.5 -15.5 82.5 -15.5q62 0 113 32.5q51 32.5 74 84.5z" />
<glyph unicode="&#104;" horiz-adv-x="604" d="M90 0v700h45v-306q14 17 34.5 34q20.5 17 46 30.5q25.5 13.5 56.5 22q31 8.5 66 8.5q93 0 139 -52.5q46 -52.5 46 -146.5v-290h-45v281q0 54 -15 86.5q-15 32.5 -38 50q-23 17.5 -49.5 23.5q-26.5 6 -50.5 6q-29 0 -58 -10q-29 -10 -54 -25.5q-25 -15.5 -45.5 -35.5q-20.5 -20 -32.5 -40l0 -336z" />
<glyph unicode="&#105;" horiz-adv-x="253" d="M104 477h45v-477h-45zM126 608q-17 0 -27.5 10.5q-10.5 10.5 -10.5 27.5q0 16 10.5 27q10.5 11 27.5 11q16 0 27 -11q11 -11 11 -27q0 -17 -11 -27.5t-27 -10.5z" />
<glyph unicode="&#106;" horiz-adv-x="253" d="M23 -204q-18 0 -40 4.5q-22 4.5 -37 13.5l0 43q14 -8 32.5 -13.5q18.5 -5.5 36.5 -5.5q89 0 89 103v536h45v-544q0 -40 -10.5 -66.5q-10.5 -26.5 -28.5 -42q-18 -15.5 -40.5 -22q-22.5 -6.5 -46.5 -6.5zt0 0zM126 608q-16 0 -27 10.5q-11 10.5 -11 27.5q0 16 11 27q11 11 27 11q17 0 27.5 -11q10.5 -11 10.5 -27q0 -17 -10.5 -27.5t-27.5 -10.5z" />
<glyph unicode="&#107;" horiz-adv-x="516" d="M90 700h45v-424l251 201h66l-269 -216l305 -261h-68l-285 244v-244l-45 0z" />
<glyph unicode="&#108;" horiz-adv-x="279" d="M193 -12q-18 0 -36.5 5q-18.5 5 -33 17.5q-14.5 12.5 -24 34q-9.5 21.5 -9.5 54.5v601h45v-592q0 -78 71 -78q28 0 50 14l0 -42q-14 -8 -30.5 -11t-32.5 -3z" />
<glyph unicode="&#109;" horiz-adv-x="913" d="M90 477h45v-79q12 18 29.5 34q17.5 16 40.5 29q23 13 51 20.5q28 7.5 60 7.5q62 0 100.5 -27q38.5 -27 54.5 -75q13 19 31.5 37.5q18.5 18.5 42.5 33q24 14.5 53.5 23q29.5 8.5 64.5 8.5q81 0 125 -49.5q44 -49.5 44 -141.5v-298h-45v289q0 53 -14 84q-14 31 -35 47.5q-21 16.5 -44.5 21.5q-23.5 5 -41.5 5q-27 0 -52.5 -9q-25.5 -9 -48 -24.5q-22.5 -15.5 -40.5 -36q-18 -20.5 -29 -43.5q1 -14 1.5 -25q0.5 -11 0.5 -25v-284h-45v290q0 53 -14 84q-14 31 -34.5 47.5q-20.5 16.5 -44 21q-23.5 4.5 -41.5 4.5q-26 0 -51 -8.5q-25 -8.5 -47.5 -23q-22.5 -14.5 -41 -34.5q-18.5 -20 -30.5 -42l0 -339l-45 0z" />
<glyph unicode="&#110;" horiz-adv-x="604" d="M90 0v477h45v-83q14 17 34.5 34q20.5 17 46 30.5q25.5 13.5 56.5 22q31 8.5 66 8.5q93 0 139 -52.5q46 -52.5 46 -146.5v-290h-45v281q0 54 -15 86.5q-15 32.5 -38 50q-23 17.5 -49.5 23.5q-26.5 6 -50.5 6q-29 0 -58 -10q-29 -10 -54 -25.5q-25 -15.5 -45.5 -35.5q-20.5 -20 -32.5 -40l0 -336z" />
<glyph unicode="&#111;" horiz-adv-x="616" d="M308 30q44 0 82 16q38 16 65.5 44q27.5 28 43.5 66q16 38 16 82q0 44 -16 82.5q-16 38.5 -43.5 66.5q-27.5 28 -65.5 44q-38 16 -82 16q-44 0 -82 -16q-38 -16 -66 -44q-28 -28 -43.5 -66.5q-15.5 -38.5 -15.5 -82.5q0 -44 15.5 -82q15.5 -38 43.5 -66q28 -28 66 -44q38 -16 82 -16zt0 0zM308 -12q-58 0 -104.5 20.5q-46.5 20.5 -79.5 55q-33 34.5 -51 79.5q-18 45 -18 95q0 49 18 94.5q18 45.5 51 80.5q33 35 79.5 55.5q46.5 20.5 104.5 20.5q58 0 104.5 -20.5q46.5 -20.5 79.5 -55.5q33 -35 51 -80.5q18 -45.5 18 -94.5q0 -50 -18 -95q-18 -45 -51 -79.5q-33 -34.5 -79.5 -55t-104.5 -20.5z" />
<glyph unicode="&#112;" horiz-adv-x="630" d="M332 489q55 0 100 -20.5q45 -20.5 77 -55q32 -34.5 49 -80q17 -45.5 17 -94.5q0 -50 -17 -95q-17 -45 -49 -80q-32 -35 -77 -55.5q-45 -20.5 -100 -20.5q-67 0 -117 27.5q-50 27.5 -80 69.5l0 -285h-45v677h45v-84q30 42 80 69q50 27 117 27zt0 0zM324 447q-31 0 -60 -8.5q-29 -8.5 -54 -24.5q-25 -16 -44 -37.5q-19 -21.5 -31 -47.5l0 -180q12 -26 31 -47.5q19 -21.5 44 -37.5q25 -16 54 -25q29 -9 60 -9q44 0 81.5 16q37.5 16 65 44q27.5 28 43 66.5q15.5 38.5 15.5 82.5q0 44 -15.5 82q-15.5 38 -43 66q-27.5 28 -65 44t-81.5 16z" />
<glyph unicode="&#113;" horiz-adv-x="631" d="M298 489q67 0 117 -27q50 -27 80 -69l0 84h45v-677h-45v285q-30 -42 -80 -69.5q-50 -27.5 -117 -27.5q-56 0 -100.5 20.5q-44.5 20.5 -76.5 55.5q-32 35 -49 80q-17 45 -17 95q0 49 17 94.5q17 45.5 49 80q32 34.5 76.5 55q44.5 20.5 100.5 20.5zt0 0zM306 447q-44 0 -81.5 -16q-37.5 -16 -65 -44q-27.5 -28 -43 -66q-15.5 -38 -15.5 -82q0 -44 15.5 -82.5q15.5 -38.5 43 -66.5q27.5 -28 65 -44q37.5 -16 81.5 -16q31 0 60 9q29 9 54 25q25 16 44 37.5q19 21.5 31 47.5l0 180q-12 26 -31 47.5q-19 21.5 -44 37.5q-25 16 -54 24.5t-60 8.5z" />
<glyph unicode="&#114;" horiz-adv-x="345" d="M90 477h45v-100q12 21 31 41q19 20 44 35.5q25 15.5 55 25.5q30 10 63 10l0 -46q-37 0 -68 -11.5q-31 -11.5 -55.5 -30q-24.5 -18.5 -42 -41q-17.5 -22.5 -27.5 -44.5l0 -316l-45 0z" />
<glyph unicode="&#115;" horiz-adv-x="500" d="M244 -12q-32 0 -62 4.5q-30 4.5 -55.5 11.5q-25.5 7 -46 16.5q-20.5 9.5 -33.5 18.5l0 49q13 -9 32.5 -19q19.5 -10 45 -18.5q25.5 -8.5 55.5 -14.5q30 -6 63 -6q70 0 111.5 25q41.5 25 41.5 69q0 24 -14 39.5q-14 15.5 -36.5 26.5q-22.5 11 -52 19q-29.5 8 -60.5 16q-33 8 -64 18q-31 10 -54.5 25.5q-23.5 15.5 -38 37.5q-14.5 22 -14.5 54q0 58 47 93.5q47 35.5 137 35.5q46 0 93.5 -12q47.5 -12 78.5 -32l0 -46q-32 20 -76.5 34q-44.5 14 -92.5 14q-74 0 -107.5 -25q-33.5 -25 -33.5 -62q0 -23 12 -38.5q12 -15.5 32.5 -26.5q20.5 -11 46.5 -18q26 -7 54 -14q34 -8 68 -17.5q34 -9.5 61 -24.5q27 -15 43.5 -38.5q16.5 -23.5 16.5 -59.5q0 -32 -15.5 -57.5q-15.5 -25.5 -42.5 -42.5q-27 -17 -63 -26t-77 -9z" />
<glyph unicode="&#116;" horiz-adv-x="422" d="M274 -12q-65 0 -94.5 37.5q-29.5 37.5 -29.5 99.5v311h-122v41h122v154h45v-154h178v-41h-178v-299q0 -60 21.5 -83.5q21.5 -23.5 68.5 -23.5q27 0 48 7.5q21 7.5 33 14.5l0 -42q-13 -9 -38.5 -15.5t-53.5 -6.5z" />
<glyph unicode="&#117;" horiz-adv-x="606" d="M515 477v-477h-45v83q-14 -17 -34.5 -34q-20.5 -17 -46 -30.5q-25.5 -13.5 -56.5 -22q-31 -8.5 -66 -8.5q-93 0 -139 52.5q-46 52.5 -46 146.5v290h45v-281q0 -54 15 -86.5q15 -32.5 38 -50q23 -17.5 49.5 -23.5q26.5 -6 50.5 -6q29 0 58 9.5q29 9.5 54 25.5q25 16 45.5 36q20.5 20 32.5 40l0 336z" />
<glyph unicode="&#118;" horiz-adv-x="555" d="M32 477h51l196 -420l194 420h49l-223 -481l-43 0z" />
<glyph unicode="&#119;" horiz-adv-x="813" d="M44 477h47l150 -411l146 413h39l147 -413l149 411h46l-175 -481h-39l-149 413l-146 -413l-40 0z" />
<glyph unicode="&#120;" horiz-adv-x="540" d="M246 254l-182 223h56l154 -188l155 188h53l-181 -221l209 -256h-57l-181 221l-181 -221l-54 0z" />
<glyph unicode="&#121;" horiz-adv-x="542" d="M101 -204q-20 0 -38 3.5q-18 3.5 -30 11.5l0 43q14 -8 29.5 -12q15.5 -4 33.5 -4q26 0 46 11q20 11 37.5 32.5q17.5 21.5 33.5 53q16 31.5 34 72.5l-221 470h51l193 -415l187 415h49l-241 -531q-31 -69 -68.5 -109.5t-95.5 -40.5z" />
<glyph unicode="&#122;" horiz-adv-x="492" d="M38 31l334 405h-310v41h375v-32l-332 -404h348v-41l-415 0z" />
<glyph unicode="&#123;" horiz-adv-x="347" d="M111 250q21 -9 34 -23q13 -14 19.5 -33.5q6.5 -19.5 8.5 -42.5q2 -23 2 -50v-178q0 -42 21.5 -65.5q21.5 -23.5 69.5 -23.5h41v-40h-48q-59 0 -93 33q-34 33 -34 95v169q0 24 -1.5 48q-1.5 24 -8.5 43.5q-7 19.5 -23 32.5q-16 13 -44 16l0 38q28 3 44 16q16 13 23 32.5q7 19.5 8.5 43.5q1.5 24 1.5 48v169q0 62 34 95q34 33 93 33h48v-40h-41q-48 0 -69.5 -23.5q-21.5 -23.5 -21.5 -65.5v-178q0 -27 -2 -50q-2 -23 -8.5 -42.5q-6.5 -19.5 -19.5 -33.5t-34 -23z" />
<glyph unicode="&#124;" horiz-adv-x="295" d="M126 760h43v-871l-43 0z" />
<glyph unicode="&#125;" horiz-adv-x="347" d="M236 250q-21 9 -34 23q-13 14 -19.5 33.5q-6.5 19.5 -8.5 42.5q-2 23 -2 50v178q0 42 -21.5 65.5q-21.5 23.5 -69.5 23.5h-41v40h48q59 0 93 -33q34 -33 34 -95v-169q0 -24 1.5 -48q1.5 -24 8.5 -43.5q7 -19.5 22.5 -32.5q15.5 -13 44.5 -16l0 -38q-29 -3 -44.5 -16q-15.5 -13 -22.5 -32.5q-7 -19.5 -8.5 -43.5q-1.5 -24 -1.5 -48v-169q0 -62 -34 -95q-34 -33 -93 -33h-48v40h41q48 0 69.5 23.5q21.5 23.5 21.5 65.5v178q0 27 2 50q2 23 8.5 42.5q6.5 19.5 19.5 33.5t34 23z" />
<glyph unicode="&#126;" horiz-adv-x="565" d="M394 212q-30 0 -57.5 7.5q-27.5 7.5 -54.5 17q-27 9.5 -54 17q-27 7.5 -57 7.5q-64 0 -101 -43l0 46q13 17 40.5 27.5q27.5 10.5 60.5 10.5q30 0 57 -7.5q27 -7.5 54 -17q27 -9.5 54.5 -17q27.5 -7.5 57.5 -7.5q64 0 101 42l0 -46q-13 -17 -41 -27t-60 -10z" />
<glyph unicode="&#160;" horiz-adv-x="268" />
<glyph unicode="&#161;" horiz-adv-x="264" d="M104 -200l7 468h42l7 -468zM94 442q0 16 11 27q11 11 27 11q16 0 27 -11q11 -11 11 -27q0 -16 -11 -27q-11 -11 -27 -11q-16 0 -27 11t-11 27z" />
<glyph unicode="&#162;" horiz-adv-x="524" d="M286 594h41v-106q36 -2 67 -12q31 -10 57 -24l0 -44q-32 19 -67.5 29q-35.5 10 -71.5 10q-45 0 -83.5 -16q-38.5 -16 -67 -44q-28.5 -28 -44.5 -66q-16 -38 -16 -83q0 -45 16 -83q16 -38 44.5 -65.5q28.5 -27.5 67 -43.5q38.5 -16 83.5 -16q44 0 80.5 11.5q36.5 11.5 67.5 33.5l0 -45q-28 -19 -61.5 -29q-33.5 -10 -71.5 -12l0 -106h-41v106q-51 4 -93.5 25q-42.5 21 -73 54.5q-30.5 33.5 -47.5 77q-17 43.5 -17 93.5q0 48 16.5 91.5q16.5 43.5 47 77.5q30.5 34 73 55q42.5 21 94.5 25z" />
<glyph unicode="&#163;" horiz-adv-x="579" d="M66 43h24q14 0 22.5 6.5q8.5 6.5 13.5 17.5q5 11 7 25q2 14 2 28v184h-69v43h69v144q0 106 58 163.5q58 57.5 162 57.5q45 0 86.5 -11.5q41.5 -11.5 76.5 -34.5l0 -48q-30 23 -72.5 36.5q-42.5 13.5 -86.5 13.5q-86 0 -132 -46.5q-46 -46.5 -46 -136.5v-138h294v-43h-294v-209q0 -19 -7 -32.5q-7 -13.5 -16 -19.5l363 0v-43l-455 0z" />
<glyph unicode="&#164;" horiz-adv-x="557" d="M59 160l64 65q-20 26 -31.5 58.5q-11.5 32.5 -11.5 67.5q0 35 11.5 67q11.5 32 31.5 58l-64 65l29 28l64 -64q25 21 56.5 33q31.5 12 69.5 12q37 0 69 -12q32 -12 56 -33l65 64l29 -28l-66 -65q22 -26 33.5 -58q11.5 -32 11.5 -67q0 -35 -11.5 -67.5q-11.5 -32.5 -32.5 -58.5l65 -65l-29 -27l-65 63q-24 -20 -56 -32q-32 -12 -69 -12q-38 0 -69.5 12q-31.5 12 -56.5 33l-64 -64zM278 192q33 0 61.5 12.5q28.5 12.5 49.5 34q21 21.5 33 50.5q12 29 12 62q0 33 -12 62q-12 29 -33 50.5q-21 21.5 -49.5 34q-28.5 12.5 -61.5 12.5q-33 0 -62 -12.5q-29 -12.5 -50 -34q-21 -21.5 -33 -50.5q-12 -29 -12 -62q0 -33 12 -62q12 -29 33 -50.5q21 -21.5 50 -34t62 -12.5z" />
<glyph unicode="&#165;" horiz-adv-x="609" d="M281 149h-215v43h215v114h-215v43h197l-237 351h54l224 -333l225 333h53l-238 -351h199v-43h-216v-114h216v-43h-216v-149l-46 0z" />
<glyph unicode="&#166;" horiz-adv-x="295" d="M126 242h43v-353h-43zM126 760h43v-353l-43 0z" />
<glyph unicode="&#167;" horiz-adv-x="642" d="M450 110q41 -21 65 -49q24 -28 24 -70q0 -30 -14 -56q-14 -26 -41 -45.5q-27 -19.5 -68 -30.5q-41 -11 -95 -11q-66 0 -120.5 17q-54.5 17 -93.5 40l0 48q44 -26 99.5 -43.5q55.5 -17.5 117.5 -17.5q78 0 123 27q45 27 45 74q0 27 -16.5 46q-16.5 19 -44 34q-27.5 15 -64.5 27q-37 12 -78 26q-48 16 -88 33q-40 17 -69.5 38.5q-29.5 21.5 -45.5 48q-16 26.5 -16 61.5q0 54 33.5 89.5q33.5 35.5 87.5 53.5q-41 21 -65 49q-24 28 -24 70q0 30 14 56q14 26 41 45.5q27 19.5 68 30.5q41 11 95 11q66 0 120.5 -17q54.5 -17 93.5 -40l0 -48q-44 26 -99.5 43.5q-55.5 17.5 -117.5 17.5q-78 0 -123 -27q-45 -27 -45 -74q0 -27 16.5 -46q16.5 -19 44 -34q27.5 -15 64.5 -27.5q37 -12.5 78 -25.5q48 -16 88 -33q40 -17 69.5 -38.5q29.5 -21.5 45.5 -48q16 -26.5 16 -61.5q0 -54 -33.5 -89.5q-33.5 -35.5 -87.5 -53.5zt0 0zM318 160q22 -8 44 -15q22 -7 39 -12q54 11 89.5 41.5q35.5 30.5 35.5 75.5q0 31 -18 54q-18 23 -46.5 40q-28.5 17 -65 30.5q-36.5 13.5 -73.5 25.5q-22 8 -44 15q-22 7 -39 12q-54 -11 -89.5 -41.5q-35.5 -30.5 -35.5 -75.5q0 -31 18 -54q18 -23 46.5 -40q28.5 -17 65 -30.5t73.5 -25.5z" />
<glyph unicode="&#168;" horiz-adv-x="522" d="M321 645q0 15 10.5 25.5q10.5 10.5 25.5 10.5q15 0 25.5 -10.5q10.5 -10.5 10.5 -25.5q0 -15 -10.5 -25.5q-10.5 -10.5 -25.5 -10.5q-15 0 -25.5 10.5q-10.5 10.5 -10.5 25.5zt0 0zM131 645q0 15 10.5 25.5q10.5 10.5 25.5 10.5q15 0 25.5 -10.5q10.5 -10.5 10.5 -25.5q0 -15 -10.5 -25.5q-10.5 -10.5 -25.5 -10.5q-15 0 -25.5 10.5t-10.5 25.5z" />
<glyph unicode="&#169;" horiz-adv-x="874" d="M459 158q-41 0 -75.5 14.5q-34.5 14.5 -60 40.5q-25.5 26 -40 61q-14.5 35 -14.5 76q0 41 14.5 76.5q14.5 35.5 40 61q25.5 25.5 60 40q34.5 14.5 75.5 14.5q57 0 101 -26l0 -42q-21 14 -46.5 21.5q-25.5 7.5 -54.5 7.5q-31 0 -58 -11.5q-27 -11.5 -46.5 -31.5q-19.5 -20 -31 -48.5q-11.5 -28.5 -11.5 -61.5q0 -33 11.5 -61.5q11.5 -28.5 31 -48.5q19.5 -20 46.5 -31.5q27 -11.5 59 -11.5q64 0 110 37l0 -42q-23 -17 -51 -25.5q-28 -8.5 -60 -8.5zt0 0zM436 -12q-75 0 -141 28.5q-66 28.5 -115 77.5q-49 49 -77 115q-28 66 -28 141q0 74 28.5 140q28.5 66 77.5 115.5q49 49.5 115 78q66 28.5 141 28.5q75 0 141 -28.5q66 -28.5 115 -77.5q49 -49 77.5 -115.5q28.5 -66.5 28.5 -141.5q0 -74 -28.5 -140q-28.5 -66 -77.5 -115q-49 -49 -115.5 -77.5q-66.5 -28.5 -141.5 -28.5zt0 0zM436 12q71 0 133 26.5q62 26.5 107.5 72q45.5 45.5 72 107q26.5 61.5 26.5 131.5q0 70 -26 132q-26 62 -72 108q-46 46 -107.5 72.5q-61.5 26.5 -132.5 26.5q-71 0 -132.5 -26.5q-61.5 -26.5 -107.5 -72.5q-46 -46 -72 -108q-26 -62 -26 -132q0 -70 26 -131.5q26 -61.5 72 -107q46 -45.5 107 -72t132 -26.5z" />
<glyph unicode="&#170;" horiz-adv-x="528" d="M441 360q12 0 20 4l0 -35q-6 -3 -14 -4q-8 -1 -15 -1q-24 0 -44 15q-20 15 -22 47q-24 -27 -62 -48q-38 -21 -91 -21q-27 0 -52 8q-25 8 -44.5 23.5q-19.5 15.5 -31 38q-11.5 22.5 -11.5 51.5q0 30 13 52.5q13 22.5 34 37.5q21 15 48 22q27 7 54 7q50 0 83.5 -12.5q33.5 -12.5 55.5 -25.5l0 44q0 54 -33 79.5q-33 25.5 -93 25.5q-40 0 -72.5 -12.5q-32.5 -12.5 -49.5 -25.5l0 40q17 11 50 23q33 12 79 12q33 0 62 -8q29 -8 51 -24.5q22 -16.5 34.5 -42q12.5 -25.5 12.5 -61.5v-162q0 -23 10.5 -35q10.5 -12 27.5 -12zt0 0zM362 483q-19 13 -54.5 26q-35.5 13 -74.5 13q-55 0 -86.5 -22q-31.5 -22 -31.5 -60q0 -23 9.5 -39q9.5 -16 24.5 -26.5q15 -10.5 34.5 -15.5q19.5 -5 40.5 -5q24 0 45 7q21 7 38.5 17.5q17.5 10.5 31.5 23.5q14 13 23 25z" />
<glyph unicode="&#171;" horiz-adv-x="535" d="M52 226v26l156 183h54l-167 -197l167 -196h-54zM275 226v26l156 183h54l-167 -197l167 -196l-54 0z" />
<glyph unicode="&#172;" horiz-adv-x="554" d="M442 333h-372v41h414v-217l-42 0z" />
<glyph unicode="&#173;" horiz-adv-x="476" d="M103 290h270v-41l-270 0z" />
<glyph unicode="&#174;" horiz-adv-x="874" d="M306 539h169q57 0 87.5 -28.5q30.5 -28.5 30.5 -73.5q0 -38 -22.5 -64.5q-22.5 -26.5 -64.5 -34.5l121 -170h-48l-118 166h-113v-166h-42zM474 370q36 0 56 17q20 17 20 49q0 32 -20 49.5q-20 17.5 -56 17.5h-126v-133zM436 -12q-75 0 -141 28.5q-66 28.5 -115 77.5q-49 49 -77 115q-28 66 -28 141q0 74 28.5 140q28.5 66 77.5 115.5q49 49.5 115 78q66 28.5 141 28.5q75 0 141 -28.5q66 -28.5 115 -77.5q49 -49 77.5 -115.5q28.5 -66.5 28.5 -141.5q0 -74 -28.5 -140q-28.5 -66 -77.5 -115q-49 -49 -115.5 -77.5q-66.5 -28.5 -141.5 -28.5zt0 0zM436 12q71 0 133 26.5q62 26.5 107.5 72q45.5 45.5 72 107q26.5 61.5 26.5 131.5q0 70 -26 132q-26 62 -72 108q-46 46 -107.5 72.5q-61.5 26.5 -132.5 26.5q-71 0 -132.5 -26.5q-61.5 -26.5 -107.5 -72.5q-46 -46 -72 -108q-26 -62 -26 -132q0 -70 26 -131.5q26 -61.5 72 -107q46 -45.5 107 -72t132 -26.5z" />
<glyph unicode="&#175;" horiz-adv-x="519" d="M144 663h230v-38l-230 0z" />
<glyph unicode="&#176;" horiz-adv-x="441" d="M220 673q-23 0 -42.5 -8.5q-19.5 -8.5 -34 -23.5q-14.5 -15 -23 -35q-8.5 -20 -8.5 -43q0 -23 8.5 -42.5q8.5 -19.5 23 -34.5q14.5 -15 34 -23.5q19.5 -8.5 42.5 -8.5q23 0 43 8.5q20 8.5 34.5 23.5q14.5 15 23 34.5q8.5 19.5 8.5 42.5q0 23 -8.5 43q-8.5 20 -23 35q-14.5 15 -34.5 23.5q-20 8.5 -43 8.5zt0 0zM220 712q31 0 58 -12q27 -12 47.5 -32q20.5 -20 32.5 -47q12 -27 12 -58q0 -30 -12 -57q-12 -27 -32.5 -47.5q-20.5 -20.5 -47.5 -32q-27 -11.5 -58 -11.5q-30 0 -57.5 11.5q-27.5 11.5 -47.5 32q-20 20.5 -32 47.5q-12 27 -12 57q0 31 12 58q12 27 32 47q20 20 47.5 32t57.5 12z" />
<glyph unicode="&#177;" horiz-adv-x="607" d="M283 360h-213v42h213v173h42v-173h212v-42h-212v-172h-42zM70 109h467v-41l-467 0z" />
<glyph unicode="&#178;" horiz-adv-x="357" d="M46 354l128 120q36 34 55.5 60.5q19.5 26.5 19.5 58.5q0 32 -23 52q-23 20 -61 20q-33 0 -61 -13.5q-28 -13.5 -50 -33.5l0 45q18 16 47.5 29q29.5 13 67.5 13q26 0 48.5 -7.5q22.5 -7.5 39 -22q16.5 -14.5 26 -34q9.5 -19.5 9.5 -43.5q0 -40 -21.5 -73q-21.5 -33 -62.5 -71l-99 -95h197v-37l-260 0z" />
<glyph unicode="&#179;" horiz-adv-x="322" d="M138 317q-35 0 -63 7.5q-28 7.5 -49 21.5l0 40q22 -14 50 -22.5q28 -8.5 60 -8.5q20 0 39 6q19 6 33.5 17q14.5 11 23.5 27q9 16 9 37q0 38 -27 60.5q-27 22.5 -74 22.5q-10 0 -22 -1.5q-12 -1.5 -22 -4.5l0 29l116 115h-170v37h228v-31l-114 -112q22 -1 45 -8q23 -7 41 -20.5q18 -13.5 29.5 -35q11.5 -21.5 11.5 -51.5q0 -28 -11 -51q-11 -23 -30.5 -39.5q-19.5 -16.5 -46 -25.5t-57.5 -9z" />
<glyph unicode="&#180;" horiz-adv-x="508" d="M289 707h61l-108 -130l-49 0z" />
<glyph unicode="&#181;" horiz-adv-x="614" d="M90 477h45v-281q0 -54 15 -86.5q15 -32.5 38 -50q23 -17.5 49.5 -23.5q26.5 -6 50.5 -6q29 0 58 9.5q29 9.5 54 25.5q25 16 45.5 36q20.5 20 32.5 40l0 336h45v-477h-45v83q-14 -17 -34.5 -34q-20.5 -17 -46 -30.5q-25.5 -13.5 -56.5 -22q-31 -8.5 -66 -8.5q-92 0 -140 54l0 -242l-45 0z" />
<glyph unicode="&#182;" horiz-adv-x="504" d="M353 327h-87q-52 0 -92 13.5q-40 13.5 -67.5 38q-27.5 24.5 -41.5 59q-14 34.5 -14 75.5q0 84 55.5 135.5q55.5 51.5 159.5 51.5h132v-700l-45 0z" />
<glyph unicode="&#183;" horiz-adv-x="222" d="M73 380q0 16 11 27q11 11 27 11q16 0 27 -11q11 -11 11 -27q0 -16 -11 -27q-11 -11 -27 -11q-16 0 -27 11t-11 27z" />
<glyph unicode="&#184;" horiz-adv-x="471" d="M238 5h40l-74 -132l-56 0z" />
<glyph unicode="&#185;" horiz-adv-x="234" d="M129 655l-104 -63v43l107 65h40v-378l-43 0z" />
<glyph unicode="&#186;" horiz-adv-x="470" d="M236 356q33 0 60.5 12q27.5 12 48 32.5q20.5 20.5 32 49q11.5 28.5 11.5 61.5q0 33 -11.5 61q-11.5 28 -32 48.5q-20.5 20.5 -48 32.5q-27.5 12 -60.5 12q-33 0 -61 -12q-28 -12 -48.5 -32.5q-20.5 -20.5 -32 -48.5q-11.5 -28 -11.5 -61q0 -33 11.5 -61.5q11.5 -28.5 32 -49q20.5 -20.5 48.5 -32.5q28 -12 61 -12zt0 0zM236 317q-45 0 -81.5 15.5q-36.5 15.5 -62.5 42q-26 26.5 -40 61.5q-14 35 -14 74q0 39 14 74.5q14 35.5 40 62q26 26.5 62.5 42.5q36.5 16 81.5 16q45 0 81 -16q36 -16 61.5 -42.5q25.5 -26.5 39.5 -62q14 -35.5 14 -74.5q0 -39 -14 -74q-14 -35 -39.5 -61.5q-25.5 -26.5 -61.5 -42t-81 -15.5z" />
<glyph unicode="&#187;" horiz-adv-x="536" d="M328 42h-54l167 196l-167 197h54l156 -183v-26zM105 42h-54l167 196l-167 197h54l156 -183l0 -26z" />
<glyph unicode="&#188;" horiz-adv-x="730" d="M525 700h48l-407 -700h-48zM129 655l-104 -63v43l107 65h40v-378h-43zM603 103h-202v32l204 243h40v-239h62v-36h-62v-103h-42zM603 139v182l-152 -182z" />
<glyph unicode="&#189;" horiz-adv-x="797" d="M525 700h48l-407 -700h-48zM129 655l-104 -63v43l107 65h40v-378h-43zM486 32l128 120q36 34 55.5 60.5q19.5 26.5 19.5 58.5q0 32 -23 52q-23 20 -61 20q-33 0 -61 -13.5q-28 -13.5 -50 -33.5l0 45q18 16 47.5 29q29.5 13 67.5 13q26 0 48.5 -7.5q22.5 -7.5 39 -22q16.5 -14.5 26 -34q9.5 -19.5 9.5 -43.5q0 -40 -21.5 -73q-21.5 -33 -62.5 -71l-99 -95h197v-37l-260 0z" />
<glyph unicode="&#190;" horiz-adv-x="783" d="M577 700h48l-407 -700h-48zM656 103h-202v32l204 243h40v-239h62v-36h-62v-103h-42zM656 139v182l-152 -182zM138 317q-35 0 -63 7.5q-28 7.5 -49 21.5l0 40q22 -14 50 -22.5q28 -8.5 60 -8.5q20 0 39 6q19 6 33.5 17q14.5 11 23.5 27q9 16 9 37q0 38 -27 60.5q-27 22.5 -74 22.5q-10 0 -22 -1.5q-12 -1.5 -22 -4.5l0 29l116 115h-170v37h228v-31l-114 -112q22 -1 45 -8q23 -7 41 -20.5q18 -13.5 29.5 -35q11.5 -21.5 11.5 -51.5q0 -28 -11 -51q-11 -23 -30.5 -39.5q-19.5 -16.5 -46 -25.5t-57.5 -9z" />
<glyph unicode="&#191;" horiz-adv-x="467" d="M284 143q-32 -7 -64.5 -20.5q-32.5 -13.5 -59 -34.5q-26.5 -21 -43.5 -48.5q-17 -27.5 -17 -62.5q0 -32 12.5 -57.5q12.5 -25.5 34.5 -43.5q22 -18 52 -28q30 -10 66 -10q52 0 95.5 18q43.5 18 75.5 42l0 -46q-31 -24 -78 -40q-47 -16 -101 -16q-42 0 -79 12.5q-37 12.5 -64.5 36q-27.5 23.5 -44 56.5q-16.5 33 -16.5 75q0 39 15.5 69.5q15.5 30.5 41.5 54.5q26 24 59.5 41.5q33.5 17.5 69.5 28.5l0 98h45zM222 442q0 16 11 27q11 11 27 11q16 0 27 -11q11 -11 11 -27q0 -16 -11 -27q-11 -11 -27 -11q-16 0 -27 11t-11 27z" />
<glyph unicode="&#192;" horiz-adv-x="743" d="M351 704h43l316 -704h-48l-93 206h-394l-93 -206h-49zM552 246l-180 398l-181 -398zM238 893h62l96 -130l-49 0z" />
<glyph unicode="&#193;" horiz-adv-x="743" d="M351 704h43l316 -704h-48l-93 206h-394l-93 -206h-49zM552 246l-180 398l-181 -398zM448 893h61l-108 -130l-49 0z" />
<glyph unicode="&#194;" horiz-adv-x="743" d="M351 704h43l316 -704h-48l-93 206h-394l-93 -206h-49zM552 246l-180 398l-181 -398zM348 893h49l107 -130h-50l-82 99l-82 -99l-50 0z" />
<glyph unicode="&#195;" horiz-adv-x="743" d="M351 704h43l316 -704h-48l-93 206h-394l-93 -206h-49zM552 246l-180 398l-181 -398zM444 776q-20 0 -38.5 10q-18.5 10 -36.5 21.5q-18 11.5 -34.5 21.5q-16.5 10 -31.5 10q-23 0 -32 -17.5q-9 -17.5 -11 -39.5l-36 0q2 44 22 70q20 26 54 26q20 0 39 -9.5q19 -9.5 36.5 -21q17.5 -11.5 34.5 -21q17 -9.5 32 -9.5q23 0 31.5 17q8.5 17 10.5 40l36 0q-2 -44 -21.5 -71t-54.5 -27z" />
<glyph unicode="&#196;" horiz-adv-x="743" d="M351 704h43l316 -704h-48l-93 206h-394l-93 -206h-49zM552 246l-180 398l-181 -398zM431 825q0 15 10.5 25.5q10.5 10.5 25.5 10.5q15 0 25.5 -10.5q10.5 -10.5 10.5 -25.5q0 -15 -10.5 -25.5q-10.5 -10.5 -25.5 -10.5q-15 0 -25.5 10.5q-10.5 10.5 -10.5 25.5zt0 0zM241 825q0 15 10.5 25.5q10.5 10.5 25.5 10.5q15 0 25.5 -10.5q10.5 -10.5 10.5 -25.5q0 -15 -10.5 -25.5q-10.5 -10.5 -25.5 -10.5q-15 0 -25.5 10.5t-10.5 25.5z" />
<glyph unicode="&#197;" horiz-adv-x="743" d="M351 704h43l316 -704h-48l-93 206h-394l-93 -206h-49zM552 246l-180 398l-181 -398zM374 736q-20 0 -37 7.5q-17 7.5 -30 20q-13 12.5 -20.5 29.5q-7.5 17 -7.5 36q0 19 7.5 36q7.5 17 20.5 29.5q13 12.5 30 20q17 7.5 37 7.5q19 0 35.5 -7.5q16.5 -7.5 29 -20q12.5 -12.5 20 -29.5q7.5 -17 7.5 -36q0 -19 -7.5 -36q-7.5 -17 -20 -29.5q-12.5 -12.5 -29 -20q-16.5 -7.5 -35.5 -7.5zt0 0zM374 769q25 0 42.5 17.5q17.5 17.5 17.5 42.5q0 26 -17.5 43.5q-17.5 17.5 -42.5 17.5q-26 0 -43.5 -17.5q-17.5 -17.5 -17.5 -43.5q0 -25 17.5 -42.5t43.5 -17.5z" />
<glyph unicode="&#198;" horiz-adv-x="1014" d="M950 700v-43h-418v-259h345v-43h-345v-312h434v-43h-480v206h-301l-131 -206h-52l444 700zM473 657l-263 -411h276l0 411z" />
<glyph unicode="&#199;" horiz-adv-x="693" d="M404 -11q-70 4 -130 32.5q-60 28.5 -104.5 76q-44.5 47.5 -69.5 112q-25 64.5 -25 140.5q0 79 27 145.5q27 66.5 74.5 114.5q47.5 48 111.5 75q64 27 139 27q114 0 200 -55l0 -50q-44 29 -92.5 45q-48.5 16 -106.5 16q-64 0 -120 -24q-56 -24 -97 -66q-41 -42 -65 -100.5q-24 -58.5 -24 -127.5q0 -69 24 -127.5q24 -58.5 65 -100.5q41 -42 97 -66q56 -24 121 -24q63 0 116.5 19q53.5 19 97.5 54l0 -51q-81 -61 -198 -66l-64 -115l-56 0z" />
<glyph unicode="&#200;" horiz-adv-x="637" d="M105 700h468v-43h-422v-259h349v-43h-349v-312h438v-43h-484zM215 893h62l96 -130l-49 0z" />
<glyph unicode="&#201;" horiz-adv-x="637" d="M105 700h468v-43h-422v-259h349v-43h-349v-312h438v-43h-484zM386 893h61l-108 -130l-49 0z" />
<glyph unicode="&#202;" horiz-adv-x="637" d="M105 700h468v-43h-422v-259h349v-43h-349v-312h438v-43h-484zM324 893h49l107 -130h-50l-82 99l-82 -99l-50 0z" />
<glyph unicode="&#203;" horiz-adv-x="637" d="M105 700h468v-43h-422v-259h349v-43h-349v-312h438v-43h-484zM405 825q0 15 10.5 25.5q10.5 10.5 25.5 10.5q15 0 25.5 -10.5q10.5 -10.5 10.5 -25.5q0 -15 -10.5 -25.5q-10.5 -10.5 -25.5 -10.5q-15 0 -25.5 10.5q-10.5 10.5 -10.5 25.5zt0 0zM215 825q0 15 10.5 25.5q10.5 10.5 25.5 10.5q15 0 25.5 -10.5q10.5 -10.5 10.5 -25.5q0 -15 -10.5 -25.5q-10.5 -10.5 -25.5 -10.5q-15 0 -25.5 10.5t-10.5 25.5z" />
<glyph unicode="&#204;" horiz-adv-x="269" d="M112 700h46v-700h-46zM-1 893h62l96 -130l-49 0z" />
<glyph unicode="&#205;" horiz-adv-x="269" d="M112 700h46v-700h-46zM202 893h61l-108 -130l-49 0z" />
<glyph unicode="&#206;" horiz-adv-x="269" d="M112 700h46v-700h-46zM111 893h49l107 -130h-50l-82 99l-82 -99l-50 0z" />
<glyph unicode="&#207;" horiz-adv-x="268" d="M111 700h46v-700h-46zM193 825q0 15 10.5 25.5q10.5 10.5 25.5 10.5q15 0 25.5 -10.5q10.5 -10.5 10.5 -25.5q0 -15 -10.5 -25.5q-10.5 -10.5 -25.5 -10.5q-15 0 -25.5 10.5q-10.5 10.5 -10.5 25.5zt0 0zM3 825q0 15 10.5 25.5q10.5 10.5 25.5 10.5q15 0 25.5 -10.5q10.5 -10.5 10.5 -25.5q0 -15 -10.5 -25.5q-10.5 -10.5 -25.5 -10.5q-15 0 -25.5 10.5t-10.5 25.5z" />
<glyph unicode="&#208;" horiz-adv-x="818" d="M149 332h-117v43h117v325h217q84 0 153.5 -25.5q69.5 -25.5 119 -71.5q49.5 -46 77 -110.5q27.5 -64.5 27.5 -142.5q0 -78 -27.5 -142.5q-27.5 -64.5 -77 -110.5q-49.5 -46 -119 -71.5q-69.5 -25.5 -153.5 -25.5h-217zM358 43q79 0 141.5 22q62.5 22 106 62.5q43.5 40.5 67 97q23.5 56.5 23.5 125.5q0 69 -23.5 125.5q-23.5 56.5 -67 97q-43.5 40.5 -106 62.5q-62.5 22 -141.5 22h-163v-282h171v-43h-171l0 -289z" />
<glyph unicode="&#209;" horiz-adv-x="775" d="M105 700h41l477 -620v620h46v-700h-40l-478 621v-621h-46zM459 776q-20 0 -38.5 10q-18.5 10 -36.5 21.5q-18 11.5 -34.5 21.5q-16.5 10 -31.5 10q-23 0 -32 -17.5q-9 -17.5 -11 -39.5l-36 0q2 44 22 70q20 26 54 26q20 0 39 -9.5q19 -9.5 36.5 -21q17.5 -11.5 34.5 -21q17 -9.5 32 -9.5q23 0 31.5 17q8.5 17 10.5 40l36 0q-2 -44 -21.5 -71t-54.5 -27z" />
<glyph unicode="&#210;" horiz-adv-x="846" d="M423 32q63 0 118 24q55 24 95.5 66.5q40.5 42.5 64 100.5q23.5 58 23.5 127q0 69 -23.5 127q-23.5 58 -64 100.5q-40.5 42.5 -95.5 66.5q-55 24 -118 24q-63 0 -118 -24q-55 -24 -95.5 -66.5q-40.5 -42.5 -64 -100.5q-23.5 -58 -23.5 -127q0 -69 23.5 -127q23.5 -58 64 -100.5q40.5 -42.5 95.5 -66.5q55 -24 118 -24zt0 0zM423 -12q-74 0 -138 27.5q-64 27.5 -110.5 75.5q-46.5 48 -73 114.5q-26.5 66.5 -26.5 144.5q0 78 26.5 144q26.5 66 73 114.5q46.5 48.5 110.5 76q64 27.5 138 27.5q74 0 137.5 -27.5q63.5 -27.5 110.5 -76q47 -48.5 73.5 -114.5q26.5 -66 26.5 -144q0 -78 -26.5 -144.5q-26.5 -66.5 -73.5 -114.5q-47 -48 -110.5 -75.5q-63.5 -27.5 -137.5 -27.5zt0 0zM289 893h62l96 -130l-49 0z" />
<glyph unicode="&#211;" horiz-adv-x="846" d="M423 32q63 0 118 24q55 24 95.5 66.5q40.5 42.5 64 100.5q23.5 58 23.5 127q0 69 -23.5 127q-23.5 58 -64 100.5q-40.5 42.5 -95.5 66.5q-55 24 -118 24q-63 0 -118 -24q-55 -24 -95.5 -66.5q-40.5 -42.5 -64 -100.5q-23.5 -58 -23.5 -127q0 -69 23.5 -127q23.5 -58 64 -100.5q40.5 -42.5 95.5 -66.5q55 -24 118 -24zt0 0zM423 -12q-74 0 -138 27.5q-64 27.5 -110.5 75.5q-46.5 48 -73 114.5q-26.5 66.5 -26.5 144.5q0 78 26.5 144q26.5 66 73 114.5q46.5 48.5 110.5 76q64 27.5 138 27.5q74 0 137.5 -27.5q63.5 -27.5 110.5 -76q47 -48.5 73.5 -114.5q26.5 -66 26.5 -144q0 -78 -26.5 -144.5q-26.5 -66.5 -73.5 -114.5q-47 -48 -110.5 -75.5q-63.5 -27.5 -137.5 -27.5zt0 0zM474 893h61l-108 -130l-49 0z" />
<glyph unicode="&#212;" horiz-adv-x="846" d="M423 32q63 0 118 24q55 24 95.5 66.5q40.5 42.5 64 100.5q23.5 58 23.5 127q0 69 -23.5 127q-23.5 58 -64 100.5q-40.5 42.5 -95.5 66.5q-55 24 -118 24q-63 0 -118 -24q-55 -24 -95.5 -66.5q-40.5 -42.5 -64 -100.5q-23.5 -58 -23.5 -127q0 -69 23.5 -127q23.5 -58 64 -100.5q40.5 -42.5 95.5 -66.5q55 -24 118 -24zt0 0zM423 -12q-74 0 -138 27.5q-64 27.5 -110.5 75.5q-46.5 48 -73 114.5q-26.5 66.5 -26.5 144.5q0 78 26.5 144q26.5 66 73 114.5q46.5 48.5 110.5 76q64 27.5 138 27.5q74 0 137.5 -27.5q63.5 -27.5 110.5 -76q47 -48.5 73.5 -114.5q26.5 -66 26.5 -144q0 -78 -26.5 -144.5q-26.5 -66.5 -73.5 -114.5q-47 -48 -110.5 -75.5q-63.5 -27.5 -137.5 -27.5zt0 0zM399 893h49l107 -130h-50l-82 99l-82 -99l-50 0z" />
<glyph unicode="&#213;" horiz-adv-x="846" d="M423 32q63 0 118 24q55 24 95.5 66.5q40.5 42.5 64 100.5q23.5 58 23.5 127q0 69 -23.5 127q-23.5 58 -64 100.5q-40.5 42.5 -95.5 66.5q-55 24 -118 24q-63 0 -118 -24q-55 -24 -95.5 -66.5q-40.5 -42.5 -64 -100.5q-23.5 -58 -23.5 -127q0 -69 23.5 -127q23.5 -58 64 -100.5q40.5 -42.5 95.5 -66.5q55 -24 118 -24zt0 0zM423 -12q-74 0 -138 27.5q-64 27.5 -110.5 75.5q-46.5 48 -73 114.5q-26.5 66.5 -26.5 144.5q0 78 26.5 144q26.5 66 73 114.5q46.5 48.5 110.5 76q64 27.5 138 27.5q74 0 137.5 -27.5q63.5 -27.5 110.5 -76q47 -48.5 73.5 -114.5q26.5 -66 26.5 -144q0 -78 -26.5 -144.5q-26.5 -66.5 -73.5 -114.5q-47 -48 -110.5 -75.5q-63.5 -27.5 -137.5 -27.5zt0 0zM495 776q-20 0 -38.5 10q-18.5 10 -36.5 21.5q-18 11.5 -34.5 21.5q-16.5 10 -31.5 10q-23 0 -32 -17.5q-9 -17.5 -11 -39.5l-36 0q2 44 22 70q20 26 54 26q20 0 39 -9.5q19 -9.5 36.5 -21q17.5 -11.5 34.5 -21q17 -9.5 32 -9.5q23 0 31.5 17q8.5 17 10.5 40l36 0q-2 -44 -21.5 -71t-54.5 -27z" />
<glyph unicode="&#214;" horiz-adv-x="846" d="M423 32q63 0 118 24q55 24 95.5 66.5q40.5 42.5 64 100.5q23.5 58 23.5 127q0 69 -23.5 127q-23.5 58 -64 100.5q-40.5 42.5 -95.5 66.5q-55 24 -118 24q-63 0 -118 -24q-55 -24 -95.5 -66.5q-40.5 -42.5 -64 -100.5q-23.5 -58 -23.5 -127q0 -69 23.5 -127q23.5 -58 64 -100.5q40.5 -42.5 95.5 -66.5q55 -24 118 -24zt0 0zM423 -12q-74 0 -138 27.5q-64 27.5 -110.5 75.5q-46.5 48 -73 114.5q-26.5 66.5 -26.5 144.5q0 78 26.5 144q26.5 66 73 114.5q46.5 48.5 110.5 76q64 27.5 138 27.5q74 0 137.5 -27.5q63.5 -27.5 110.5 -76q47 -48.5 73.5 -114.5q26.5 -66 26.5 -144q0 -78 -26.5 -144.5q-26.5 -66.5 -73.5 -114.5q-47 -48 -110.5 -75.5q-63.5 -27.5 -137.5 -27.5zt0 0zM482 825q0 15 10.5 25.5q10.5 10.5 25.5 10.5q15 0 25.5 -10.5q10.5 -10.5 10.5 -25.5q0 -15 -10.5 -25.5q-10.5 -10.5 -25.5 -10.5q-15 0 -25.5 10.5q-10.5 10.5 -10.5 25.5zt0 0zM292 825q0 15 10.5 25.5q10.5 10.5 25.5 10.5q15 0 25.5 -10.5q10.5 -10.5 10.5 -25.5q0 -15 -10.5 -25.5q-10.5 -10.5 -25.5 -10.5q-15 0 -25.5 10.5t-10.5 25.5z" />
<glyph unicode="&#215;" horiz-adv-x="520" d="M70 163l160 160l-160 161l29 29l161 -160l160 160l30 -29l-162 -161l161 -159l-29 -30l-159 160l-162 -160z" />
<glyph unicode="&#216;" horiz-adv-x="846" d="M423 -12q-63 0 -116.5 19q-53.5 19 -98.5 54l-50 -61h-50l71 86q-49 49 -76.5 116q-27.5 67 -27.5 148q0 78 26.5 144q26.5 66 73 114.5q46.5 48.5 110.5 76q64 27.5 138 27.5q62 0 116 -19.5q54 -19.5 99 -54.5l51 62h51l-73 -88q48 -49 76 -116q28 -67 28 -146q0 -78 -26.5 -144.5q-26.5 -66.5 -73.5 -114.5q-47 -48 -110.5 -75.5q-63.5 -27.5 -137.5 -27.5zt0 0zM122 350q0 -69 23 -127q23 -58 64 -101l400 481q-38 31 -85 48q-47 17 -101 17q-63 0 -118 -24q-55 -24 -95.5 -66.5q-40.5 -42.5 -64 -100.5q-23.5 -58 -23.5 -127zt0 0zM423 32q63 0 118 24q55 24 95.5 66.5q40.5 42.5 64 100.5q23.5 58 23.5 127q0 69 -23 126.5q-23 57.5 -64 100.5l-399 -481q38 -31 84.5 -47.5t100.5 -16.5z" />
<glyph unicode="&#217;" horiz-adv-x="747" d="M374 -12q-62 0 -113 20q-51 20 -88.5 59.5q-37.5 39.5 -58 97.5q-20.5 58 -20.5 134v401h46v-401q0 -64 16.5 -113.5q16.5 -49.5 46.5 -83.5q30 -34 73.5 -52q43.5 -18 97.5 -18q108 0 170.5 69.5q62.5 69.5 62.5 197.5v401h46v-401q0 -76 -21 -134q-21 -58 -58 -97.5q-37 -39.5 -88 -59.5q-51 -20 -112 -20zt0 0zM252 893h62l96 -130l-49 0z" />
<glyph unicode="&#218;" horiz-adv-x="747" d="M374 -12q-62 0 -113 20q-51 20 -88.5 59.5q-37.5 39.5 -58 97.5q-20.5 58 -20.5 134v401h46v-401q0 -64 16.5 -113.5q16.5 -49.5 46.5 -83.5q30 -34 73.5 -52q43.5 -18 97.5 -18q108 0 170.5 69.5q62.5 69.5 62.5 197.5v401h46v-401q0 -76 -21 -134q-21 -58 -58 -97.5q-37 -39.5 -88 -59.5q-51 -20 -112 -20zt0 0zM439 893h61l-108 -130l-49 0z" />
<glyph unicode="&#219;" horiz-adv-x="747" d="M374 -12q-62 0 -113 20q-51 20 -88.5 59.5q-37.5 39.5 -58 97.5q-20.5 58 -20.5 134v401h46v-401q0 -64 16.5 -113.5q16.5 -49.5 46.5 -83.5q30 -34 73.5 -52q43.5 -18 97.5 -18q108 0 170.5 69.5q62.5 69.5 62.5 197.5v401h46v-401q0 -76 -21 -134q-21 -58 -58 -97.5q-37 -39.5 -88 -59.5q-51 -20 -112 -20zt0 0zM349 893h49l107 -130h-50l-82 99l-82 -99l-50 0z" />
<glyph unicode="&#220;" horiz-adv-x="747" d="M374 -12q-62 0 -113 20q-51 20 -88.5 59.5q-37.5 39.5 -58 97.5q-20.5 58 -20.5 134v401h46v-401q0 -64 16.5 -113.5q16.5 -49.5 46.5 -83.5q30 -34 73.5 -52q43.5 -18 97.5 -18q108 0 170.5 69.5q62.5 69.5 62.5 197.5v401h46v-401q0 -76 -21 -134q-21 -58 -58 -97.5q-37 -39.5 -88 -59.5q-51 -20 -112 -20zt0 0zM432 825q0 15 10.5 25.5q10.5 10.5 25.5 10.5q15 0 25.5 -10.5q10.5 -10.5 10.5 -25.5q0 -15 -10.5 -25.5q-10.5 -10.5 -25.5 -10.5q-15 0 -25.5 10.5q-10.5 10.5 -10.5 25.5zt0 0zM242 825q0 15 10.5 25.5q10.5 10.5 25.5 10.5q15 0 25.5 -10.5q10.5 -10.5 10.5 -25.5q0 -15 -10.5 -25.5q-10.5 -10.5 -25.5 -10.5q-15 0 -25.5 10.5t-10.5 25.5z" />
<glyph unicode="&#221;" horiz-adv-x="646" d="M299 324l-273 376h56l241 -332l242 332h53l-273 -375v-325h-46zM384 893h61l-108 -130l-49 0z" />
<glyph unicode="&#222;" horiz-adv-x="665" d="M105 700h46v-162h245q52 0 92.5 -14q40.5 -14 68 -38.5q27.5 -24.5 41.5 -59q14 -34.5 14 -76.5q0 -42 -14 -76.5q-14 -34.5 -41.5 -59.5q-27.5 -25 -68 -39q-40.5 -14 -92.5 -14h-245v-161h-46zM392 204q83 0 128.5 38q45.5 38 45.5 108q0 69 -45.5 107q-45.5 38 -128.5 38h-241l0 -291z" />
<glyph unicode="&#223;" horiz-adv-x="613" d="M339 -12q-25 0 -49.5 3.5q-24.5 3.5 -44.5 11.5l0 45q19 -9 42 -13.5q23 -4.5 46 -4.5q38 0 70.5 11q32.5 11 56.5 32q24 21 37.5 51q13.5 30 13.5 68q0 39 -15 72q-15 33 -42.5 56.5q-27.5 23.5 -66.5 36.5q-39 13 -87 13h-22v41h22q68 0 108.5 30.5q40.5 30.5 40.5 91.5q0 28 -11 52.5q-11 24.5 -31 42q-20 17.5 -48 27.5q-28 10 -62 10q-35 0 -65 -11.5q-30 -11.5 -51.5 -33.5q-21.5 -22 -33.5 -53q-12 -31 -12 -70v-497h-45v497q0 48 15 86.5q15 38.5 42.5 66q27.5 27.5 65.5 42.5q38 15 84 15q44 0 80.5 -13q36.5 -13 62.5 -36q26 -23 40.5 -54q14.5 -31 14.5 -67q0 -59 -29.5 -94.5q-29.5 -35.5 -76.5 -49.5q33 -7 63.5 -23q30.5 -16 54 -41.5q23.5 -25.5 37.5 -60.5q14 -35 14 -80q0 -47 -17 -84q-17 -37 -46 -62.5q-29 -25.5 -69.5 -39.5t-86.5 -14z" />
<glyph unicode="&#224;" horiz-adv-x="589" d="M246 30q32 0 60.5 8.5q28.5 8.5 52.5 22q24 13.5 43 30.5q19 17 32 34l0 79q-13 9 -31.5 18.5q-18.5 9.5 -41 18q-22.5 8.5 -48.5 14q-26 5.5 -54 5.5q-77 0 -120 -31.5q-43 -31.5 -43 -83.5q0 -31 13 -53q13 -22 34 -35.5q21 -13.5 48 -20q27 -6.5 55 -6.5zt0 0zM233 -12q-35 0 -68 10q-33 10 -59 29.5q-26 19.5 -41.5 48.5q-15.5 29 -15.5 68q0 36 15.5 65q15.5 29 42 49q26.5 20 62.5 31q36 11 78 11q66 0 112 -17.5q46 -17.5 75 -34.5l0 63q0 71 -46 103.5q-46 32.5 -124 32.5q-52 0 -94.5 -17q-42.5 -17 -67.5 -34l0 46q24 16 67 31.5q43 15.5 103 15.5q43 0 81 -10q38 -10 66 -31q28 -21 44 -54q16 -33 16 -79v-212q0 -32 14 -50q14 -18 38 -18q16 0 28 6l0 -37q-8 -5 -18.5 -6.5q-10.5 -1.5 -20.5 -1.5q-29 0 -54 19q-25 19 -28 64q-32 -37 -82.5 -64q-50.5 -27 -122.5 -27zt0 0zM182 707h62l96 -130l-49 0z" />
<glyph unicode="&#225;" horiz-adv-x="589" d="M246 30q32 0 60.5 8.5q28.5 8.5 52.5 22q24 13.5 43 30.5q19 17 32 34l0 79q-13 9 -31.5 18.5q-18.5 9.5 -41 18q-22.5 8.5 -48.5 14q-26 5.5 -54 5.5q-77 0 -120 -31.5q-43 -31.5 -43 -83.5q0 -31 13 -53q13 -22 34 -35.5q21 -13.5 48 -20q27 -6.5 55 -6.5zt0 0zM233 -12q-35 0 -68 10q-33 10 -59 29.5q-26 19.5 -41.5 48.5q-15.5 29 -15.5 68q0 36 15.5 65q15.5 29 42 49q26.5 20 62.5 31q36 11 78 11q66 0 112 -17.5q46 -17.5 75 -34.5l0 63q0 71 -46 103.5q-46 32.5 -124 32.5q-52 0 -94.5 -17q-42.5 -17 -67.5 -34l0 46q24 16 67 31.5q43 15.5 103 15.5q43 0 81 -10q38 -10 66 -31q28 -21 44 -54q16 -33 16 -79v-212q0 -32 14 -50q14 -18 38 -18q16 0 28 6l0 -37q-8 -5 -18.5 -6.5q-10.5 -1.5 -20.5 -1.5q-29 0 -54 19q-25 19 -28 64q-32 -37 -82.5 -64q-50.5 -27 -122.5 -27zt0 0zM333 707h61l-108 -130l-49 0z" />
<glyph unicode="&#226;" horiz-adv-x="589" d="M246 30q32 0 60.5 8.5q28.5 8.5 52.5 22q24 13.5 43 30.5q19 17 32 34l0 79q-13 9 -31.5 18.5q-18.5 9.5 -41 18q-22.5 8.5 -48.5 14q-26 5.5 -54 5.5q-77 0 -120 -31.5q-43 -31.5 -43 -83.5q0 -31 13 -53q13 -22 34 -35.5q21 -13.5 48 -20q27 -6.5 55 -6.5zt0 0zM233 -12q-35 0 -68 10q-33 10 -59 29.5q-26 19.5 -41.5 48.5q-15.5 29 -15.5 68q0 36 15.5 65q15.5 29 42 49q26.5 20 62.5 31q36 11 78 11q66 0 112 -17.5q46 -17.5 75 -34.5l0 63q0 71 -46 103.5q-46 32.5 -124 32.5q-52 0 -94.5 -17q-42.5 -17 -67.5 -34l0 46q24 16 67 31.5q43 15.5 103 15.5q43 0 81 -10q38 -10 66 -31q28 -21 44 -54q16 -33 16 -79v-212q0 -32 14 -50q14 -18 38 -18q16 0 28 6l0 -37q-8 -5 -18.5 -6.5q-10.5 -1.5 -20.5 -1.5q-29 0 -54 19q-25 19 -28 64q-32 -37 -82.5 -64q-50.5 -27 -122.5 -27zt0 0zM254 706h49l107 -130h-50l-82 99l-82 -99l-50 0z" />
<glyph unicode="&#227;" horiz-adv-x="589" d="M246 30q32 0 60.5 8.5q28.5 8.5 52.5 22q24 13.5 43 30.5q19 17 32 34l0 79q-13 9 -31.5 18.5q-18.5 9.5 -41 18q-22.5 8.5 -48.5 14q-26 5.5 -54 5.5q-77 0 -120 -31.5q-43 -31.5 -43 -83.5q0 -31 13 -53q13 -22 34 -35.5q21 -13.5 48 -20q27 -6.5 55 -6.5zt0 0zM233 -12q-35 0 -68 10q-33 10 -59 29.5q-26 19.5 -41.5 48.5q-15.5 29 -15.5 68q0 36 15.5 65q15.5 29 42 49q26.5 20 62.5 31q36 11 78 11q66 0 112 -17.5q46 -17.5 75 -34.5l0 63q0 71 -46 103.5q-46 32.5 -124 32.5q-52 0 -94.5 -17q-42.5 -17 -67.5 -34l0 46q24 16 67 31.5q43 15.5 103 15.5q43 0 81 -10q38 -10 66 -31q28 -21 44 -54q16 -33 16 -79v-212q0 -32 14 -50q14 -18 38 -18q16 0 28 6l0 -37q-8 -5 -18.5 -6.5q-10.5 -1.5 -20.5 -1.5q-29 0 -54 19q-25 19 -28 64q-32 -37 -82.5 -64q-50.5 -27 -122.5 -27zt0 0zM353 593q-20 0 -39 10q-19 10 -37 21.5q-18 11.5 -34.5 21.5q-16.5 10 -32.5 10q-22 0 -30.5 -17.5q-8.5 -17.5 -10.5 -39.5l-36 0q2 44 22 70.5q20 26.5 54 26.5q20 0 39 -9.5q19 -9.5 36.5 -21.5q17.5 -12 34 -21.5q16.5 -9.5 31.5 -9.5q23 0 31.5 17q8.5 17 10.5 40l36 0q-2 -44 -21.5 -71t-53.5 -27z" />
<glyph unicode="&#228;" horiz-adv-x="589" d="M246 30q32 0 60.5 8.5q28.5 8.5 52.5 22q24 13.5 43 30.5q19 17 32 34l0 79q-13 9 -31.5 18.5q-18.5 9.5 -41 18q-22.5 8.5 -48.5 14q-26 5.5 -54 5.5q-77 0 -120 -31.5q-43 -31.5 -43 -83.5q0 -31 13 -53q13 -22 34 -35.5q21 -13.5 48 -20q27 -6.5 55 -6.5zt0 0zM233 -12q-35 0 -68 10q-33 10 -59 29.5q-26 19.5 -41.5 48.5q-15.5 29 -15.5 68q0 36 15.5 65q15.5 29 42 49q26.5 20 62.5 31q36 11 78 11q66 0 112 -17.5q46 -17.5 75 -34.5l0 63q0 71 -46 103.5q-46 32.5 -124 32.5q-52 0 -94.5 -17q-42.5 -17 -67.5 -34l0 46q24 16 67 31.5q43 15.5 103 15.5q43 0 81 -10q38 -10 66 -31q28 -21 44 -54q16 -33 16 -79v-212q0 -32 14 -50q14 -18 38 -18q16 0 28 6l0 -37q-8 -5 -18.5 -6.5q-10.5 -1.5 -20.5 -1.5q-29 0 -54 19q-25 19 -28 64q-32 -37 -82.5 -64q-50.5 -27 -122.5 -27zt0 0zM347 645q0 15 10.5 25.5q10.5 10.5 25.5 10.5q15 0 25.5 -10.5q10.5 -10.5 10.5 -25.5q0 -15 -10.5 -25.5q-10.5 -10.5 -25.5 -10.5q-15 0 -25.5 10.5q-10.5 10.5 -10.5 25.5zt0 0zM157 645q0 15 10.5 25.5q10.5 10.5 25.5 10.5q15 0 25.5 -10.5q10.5 -10.5 10.5 -25.5q0 -15 -10.5 -25.5q-10.5 -10.5 -25.5 -10.5q-15 0 -25.5 10.5t-10.5 25.5z" />
<glyph unicode="&#229;" horiz-adv-x="589" d="M246 30q32 0 60.5 8.5q28.5 8.5 52.5 22q24 13.5 43 30.5q19 17 32 34l0 79q-13 9 -31.5 18.5q-18.5 9.5 -41 18q-22.5 8.5 -48.5 14q-26 5.5 -54 5.5q-77 0 -120 -31.5q-43 -31.5 -43 -83.5q0 -31 13 -53q13 -22 34 -35.5q21 -13.5 48 -20q27 -6.5 55 -6.5zt0 0zM233 -12q-35 0 -68 10q-33 10 -59 29.5q-26 19.5 -41.5 48.5q-15.5 29 -15.5 68q0 36 15.5 65q15.5 29 42 49q26.5 20 62.5 31q36 11 78 11q66 0 112 -17.5q46 -17.5 75 -34.5l0 63q0 71 -46 103.5q-46 32.5 -124 32.5q-52 0 -94.5 -17q-42.5 -17 -67.5 -34l0 46q24 16 67 31.5q43 15.5 103 15.5q43 0 81 -10q38 -10 66 -31q28 -21 44 -54q16 -33 16 -79v-212q0 -32 14 -50q14 -18 38 -18q16 0 28 6l0 -37q-8 -5 -18.5 -6.5q-10.5 -1.5 -20.5 -1.5q-29 0 -54 19q-25 19 -28 64q-32 -37 -82.5 -64q-50.5 -27 -122.5 -27zt0 0zM284 552q-20 0 -37.5 7.5q-17.5 7.5 -30 20q-12.5 12.5 -20 29.5q-7.5 17 -7.5 36q0 19 7.5 36q7.5 17 20 29.5q12.5 12.5 30 20q17.5 7.5 37.5 7.5q19 0 35.5 -7.5q16.5 -7.5 29 -20q12.5 -12.5 19.5 -29.5q7 -17 7 -36q0 -19 -7 -36q-7 -17 -19.5 -29.5q-12.5 -12.5 -29 -20q-16.5 -7.5 -35.5 -7.5zt0 0zM284 585q25 0 42.5 17.5q17.5 17.5 17.5 42.5q0 26 -17.5 43.5q-17.5 17.5 -42.5 17.5q-26 0 -44 -17.5q-18 -17.5 -18 -43.5q0 -25 18 -42.5t44 -17.5z" />
<glyph unicode="&#230;" horiz-adv-x="945" d="M890 232h-412q1 -45 17.5 -82q16.5 -37 46 -64q29.5 -27 69.5 -41.5q40 -14.5 88 -14.5q47 0 86 12.5q39 12.5 68 32.5l0 -44q-24 -18 -66.5 -30.5q-42.5 -12.5 -93.5 -12.5q-75 0 -133.5 32q-58.5 32 -91.5 87q-11 -15 -32 -35q-21 -20 -50 -39q-29 -19 -66.5 -32q-37.5 -13 -82.5 -13q-36 0 -70 10q-34 10 -60.5 29.5q-26.5 19.5 -42 48.5q-15.5 29 -15.5 68q0 36 15.5 64.5q15.5 28.5 42 49q26.5 20.5 62.5 31q36 10.5 78 10.5q66 0 112 -17.5q46 -17.5 75 -34.5l0 64q0 71 -46 103.5q-46 32.5 -124 32.5q-52 0 -94.5 -17q-42.5 -17 -67.5 -34l0 46q24 16 67 31.5q43 15.5 103 15.5q70 0 123.5 -26.5q53.5 -26.5 73.5 -84.5q30 51 81.5 81q51.5 30 119.5 30q63 0 105 -24.5q42 -24.5 67.5 -61q25.5 -36.5 36.5 -79q11 -42.5 11 -77.5zM248 30q39 0 70.5 10.5q31.5 10.5 56 27q24.5 16.5 43.5 36q19 19.5 33 37.5q-11 27 -16 63q-14 9 -32.5 19q-18.5 10 -41 18.5q-22.5 8.5 -48.5 14q-26 5.5 -54 5.5q-77 0 -120 -32q-43 -32 -43 -84q0 -31 13 -53q13 -22 34 -35.5q21 -13.5 48.5 -20q27.5 -6.5 56.5 -6.5zt0 0zM845 271q0 26 -9.5 56.5q-9.5 30.5 -30 57q-20.5 26.5 -54 44.5q-33.5 18 -82.5 18q-45 0 -79 -15.5q-34 -15.5 -58 -41q-24 -25.5 -37.5 -57q-13.5 -31.5 -15.5 -62.5z" />
<glyph unicode="&#231;" horiz-adv-x="524" d="M55 239q0 51 18.5 96.5q18.5 45.5 51.5 79.5q33 34 79.5 54q46.5 20 102.5 20q42 0 78.5 -10q36.5 -10 65.5 -27l0 -44q-32 19 -67.5 29q-35.5 10 -71.5 10q-45 0 -83.5 -16q-38.5 -16 -67 -44q-28.5 -28 -44.5 -66q-16 -38 -16 -83q0 -45 16 -83q16 -38 44.5 -65.5q28.5 -27.5 67 -43.5q38.5 -16 83.5 -16q44 0 80.5 11.5q36.5 11.5 67.5 33.5l0 -45q-53 -35 -124 -41l-65 -116h-56l78 115q-53 2 -96.5 23q-43.5 21 -75 54.5q-31.5 33.5 -49 78.5t-17.5 95z" />
<glyph unicode="&#232;" horiz-adv-x="567" d="M315 -12q-56 0 -103.5 18.5q-47.5 18.5 -82 51.5q-34.5 33 -54.5 79q-20 46 -20 101q0 54 17 99.5q17 45.5 48.5 79.5q31.5 34 75 53q43.5 19 96.5 19q63 0 105 -24.5q42 -24.5 67.5 -61q25.5 -36.5 36.5 -79q11 -42.5 11 -77.5v-15h-412q1 -45 17.5 -82q16.5 -37 46 -64q29.5 -27 69.5 -41.5q40 -14.5 88 -14.5q47 0 86 12.5q39 12.5 68 32.5l0 -44q-24 -18 -66.5 -30.5q-42.5 -12.5 -93.5 -12.5zt0 0zM467 271q0 26 -9.5 56.5q-9.5 30.5 -30 57q-20.5 26.5 -54 44.5q-33.5 18 -82.5 18q-45 0 -79 -15.5q-34 -15.5 -58 -41q-24 -25.5 -37.5 -57q-13.5 -31.5 -15.5 -62.5zM199 707h62l96 -130l-49 0z" />
<glyph unicode="&#233;" horiz-adv-x="567" d="M315 -12q-56 0 -103.5 18.5q-47.5 18.5 -82 51.5q-34.5 33 -54.5 79q-20 46 -20 101q0 54 17 99.5q17 45.5 48.5 79.5q31.5 34 75 53q43.5 19 96.5 19q63 0 105 -24.5q42 -24.5 67.5 -61q25.5 -36.5 36.5 -79q11 -42.5 11 -77.5v-15h-412q1 -45 17.5 -82q16.5 -37 46 -64q29.5 -27 69.5 -41.5q40 -14.5 88 -14.5q47 0 86 12.5q39 12.5 68 32.5l0 -44q-24 -18 -66.5 -30.5q-42.5 -12.5 -93.5 -12.5zt0 0zM467 271q0 26 -9.5 56.5q-9.5 30.5 -30 57q-20.5 26.5 -54 44.5q-33.5 18 -82.5 18q-45 0 -79 -15.5q-34 -15.5 -58 -41q-24 -25.5 -37.5 -57q-13.5 -31.5 -15.5 -62.5zM338 707h61l-108 -130l-49 0z" />
<glyph unicode="&#234;" horiz-adv-x="567" d="M315 -12q-56 0 -103.5 18.5q-47.5 18.5 -82 51.5q-34.5 33 -54.5 79q-20 46 -20 101q0 54 17 99.5q17 45.5 48.5 79.5q31.5 34 75 53q43.5 19 96.5 19q63 0 105 -24.5q42 -24.5 67.5 -61q25.5 -36.5 36.5 -79q11 -42.5 11 -77.5v-15h-412q1 -45 17.5 -82q16.5 -37 46 -64q29.5 -27 69.5 -41.5q40 -14.5 88 -14.5q47 0 86 12.5q39 12.5 68 32.5l0 -44q-24 -18 -66.5 -30.5q-42.5 -12.5 -93.5 -12.5zt0 0zM467 271q0 26 -9.5 56.5q-9.5 30.5 -30 57q-20.5 26.5 -54 44.5q-33.5 18 -82.5 18q-45 0 -79 -15.5q-34 -15.5 -58 -41q-24 -25.5 -37.5 -57q-13.5 -31.5 -15.5 -62.5zM266 706h49l107 -130h-50l-82 99l-82 -99l-50 0z" />
<glyph unicode="&#235;" horiz-adv-x="567" d="M315 -12q-56 0 -103.5 18.5q-47.5 18.5 -82 51.5q-34.5 33 -54.5 79q-20 46 -20 101q0 54 17 99.5q17 45.5 48.5 79.5q31.5 34 75 53q43.5 19 96.5 19q63 0 105 -24.5q42 -24.5 67.5 -61q25.5 -36.5 36.5 -79q11 -42.5 11 -77.5v-15h-412q1 -45 17.5 -82q16.5 -37 46 -64q29.5 -27 69.5 -41.5q40 -14.5 88 -14.5q47 0 86 12.5q39 12.5 68 32.5l0 -44q-24 -18 -66.5 -30.5q-42.5 -12.5 -93.5 -12.5zt0 0zM467 271q0 26 -9.5 56.5q-9.5 30.5 -30 57q-20.5 26.5 -54 44.5q-33.5 18 -82.5 18q-45 0 -79 -15.5q-34 -15.5 -58 -41q-24 -25.5 -37.5 -57q-13.5 -31.5 -15.5 -62.5zM357 645q0 15 10.5 25.5q10.5 10.5 25.5 10.5q15 0 25.5 -10.5q10.5 -10.5 10.5 -25.5q0 -15 -10.5 -25.5q-10.5 -10.5 -25.5 -10.5q-15 0 -25.5 10.5q-10.5 10.5 -10.5 25.5zt0 0zM167 645q0 15 10.5 25.5q10.5 10.5 25.5 10.5q15 0 25.5 -10.5q10.5 -10.5 10.5 -25.5q0 -15 -10.5 -25.5q-10.5 -10.5 -25.5 -10.5q-15 0 -25.5 10.5t-10.5 25.5z" />
<glyph unicode="&#236;" horiz-adv-x="253" d="M-5 707h62l96 -130h-49zM104 477h45v-477l-45 0z" />
<glyph unicode="&#237;" horiz-adv-x="253" d="M198 707h61l-108 -130h-49zM104 477h45v-477l-45 0z" />
<glyph unicode="&#238;" horiz-adv-x="253" d="M104 477h45v-477h-45zM102 706h49l107 -130h-50l-82 99l-82 -99l-50 0z" />
<glyph unicode="&#239;" horiz-adv-x="252" d="M185 645q0 15 10.5 25.5q10.5 10.5 25.5 10.5q15 0 25.5 -10.5q10.5 -10.5 10.5 -25.5q0 -15 -10.5 -25.5q-10.5 -10.5 -25.5 -10.5q-15 0 -25.5 10.5q-10.5 10.5 -10.5 25.5zt0 0zM-5 645q0 15 10.5 25.5q10.5 10.5 25.5 10.5q15 0 25.5 -10.5q10.5 -10.5 10.5 -25.5q0 -15 -10.5 -25.5q-10.5 -10.5 -25.5 -10.5q-15 0 -25.5 10.5q-10.5 10.5 -10.5 25.5zt0 0zM104 477h45v-477l-45 0z" />
<glyph unicode="&#240;" horiz-adv-x="595" d="M297 -12q-55 0 -100 19.5q-45 19.5 -76.5 52.5q-31.5 33 -48.5 76q-17 43 -17 90q0 47 16.5 89.5q16.5 42.5 47 75q30.5 32.5 73.5 51.5q43 19 96 19q35 0 64.5 -6.5q29.5 -6.5 55.5 -21.5l-115 164l-137 -56l-21 30l137 57l-53 72h51l41 -57l120 50l21 -30l-121 -50q51 -72 86.5 -124.5q35.5 -52.5 58.5 -87.5q12 -19 23.5 -38q11.5 -19 20.5 -39.5q9 -20.5 14.5 -44q5.5 -23.5 5.5 -50.5q0 -48 -17.5 -91.5q-17.5 -43.5 -49 -76.5q-31.5 -33 -76.5 -53q-45 -20 -100 -20zt0 0zM297 30q42 0 78 15q36 15 62.5 41.5q26.5 26.5 41.5 62.5q15 36 15 78q0 42 -15 77.5q-15 35.5 -41.5 61.5q-26.5 26 -62.5 40.5q-36 14.5 -78 14.5q-42 0 -78 -14.5q-36 -14.5 -62 -40.5q-26 -26 -41 -61.5q-15 -35.5 -15 -77.5q0 -42 15 -78q15 -36 41 -62.5q26 -26.5 62 -41.5t78 -15z" />
<glyph unicode="&#241;" horiz-adv-x="604" d="M90 0v477h45v-83q14 17 34.5 34q20.5 17 46 30.5q25.5 13.5 56.5 22q31 8.5 66 8.5q93 0 139 -52.5q46 -52.5 46 -146.5v-290h-45v281q0 54 -15 86.5q-15 32.5 -38 50q-23 17.5 -49.5 23.5q-26.5 6 -50.5 6q-29 0 -58 -10q-29 -10 -54 -25.5q-25 -15.5 -45.5 -35.5q-20.5 -20 -32.5 -40l0 -336zM379 593q-20 0 -39 10q-19 10 -37 21.5q-18 11.5 -34.5 21.5q-16.5 10 -32.5 10q-22 0 -30.5 -17.5q-8.5 -17.5 -10.5 -39.5l-36 0q2 44 22 70.5q20 26.5 54 26.5q20 0 39 -9.5q19 -9.5 36.5 -21.5q17.5 -12 34 -21.5q16.5 -9.5 31.5 -9.5q23 0 31.5 17q8.5 17 10.5 40l36 0q-2 -44 -21.5 -71t-53.5 -27z" />
<glyph unicode="&#242;" horiz-adv-x="616" d="M308 30q44 0 82 16q38 16 65.5 44q27.5 28 43.5 66q16 38 16 82q0 44 -16 82.5q-16 38.5 -43.5 66.5q-27.5 28 -65.5 44q-38 16 -82 16q-44 0 -82 -16q-38 -16 -66 -44q-28 -28 -43.5 -66.5q-15.5 -38.5 -15.5 -82.5q0 -44 15.5 -82q15.5 -38 43.5 -66q28 -28 66 -44q38 -16 82 -16zt0 0zM308 -12q-58 0 -104.5 20.5q-46.5 20.5 -79.5 55q-33 34.5 -51 79.5q-18 45 -18 95q0 49 18 94.5q18 45.5 51 80.5q33 35 79.5 55.5q46.5 20.5 104.5 20.5q58 0 104.5 -20.5q46.5 -20.5 79.5 -55.5q33 -35 51 -80.5q18 -45.5 18 -94.5q0 -50 -18 -95q-18 -45 -51 -79.5q-33 -34.5 -79.5 -55q-46.5 -20.5 -104.5 -20.5zt0 0zM195 707h62l96 -130l-49 0z" />
<glyph unicode="&#243;" horiz-adv-x="616" d="M308 30q44 0 82 16q38 16 65.5 44q27.5 28 43.5 66q16 38 16 82q0 44 -16 82.5q-16 38.5 -43.5 66.5q-27.5 28 -65.5 44q-38 16 -82 16q-44 0 -82 -16q-38 -16 -66 -44q-28 -28 -43.5 -66.5q-15.5 -38.5 -15.5 -82.5q0 -44 15.5 -82q15.5 -38 43.5 -66q28 -28 66 -44q38 -16 82 -16zt0 0zM308 -12q-58 0 -104.5 20.5q-46.5 20.5 -79.5 55q-33 34.5 -51 79.5q-18 45 -18 95q0 49 18 94.5q18 45.5 51 80.5q33 35 79.5 55.5q46.5 20.5 104.5 20.5q58 0 104.5 -20.5q46.5 -20.5 79.5 -55.5q33 -35 51 -80.5q18 -45.5 18 -94.5q0 -50 -18 -95q-18 -45 -51 -79.5q-33 -34.5 -79.5 -55q-46.5 -20.5 -104.5 -20.5zt0 0zM371 707h61l-108 -130l-49 0z" />
<glyph unicode="&#244;" horiz-adv-x="616" d="M308 30q44 0 82 16q38 16 65.5 44q27.5 28 43.5 66q16 38 16 82q0 44 -16 82.5q-16 38.5 -43.5 66.5q-27.5 28 -65.5 44q-38 16 -82 16q-44 0 -82 -16q-38 -16 -66 -44q-28 -28 -43.5 -66.5q-15.5 -38.5 -15.5 -82.5q0 -44 15.5 -82q15.5 -38 43.5 -66q28 -28 66 -44q38 -16 82 -16zt0 0zM308 -12q-58 0 -104.5 20.5q-46.5 20.5 -79.5 55q-33 34.5 -51 79.5q-18 45 -18 95q0 49 18 94.5q18 45.5 51 80.5q33 35 79.5 55.5q46.5 20.5 104.5 20.5q58 0 104.5 -20.5q46.5 -20.5 79.5 -55.5q33 -35 51 -80.5q18 -45.5 18 -94.5q0 -50 -18 -95q-18 -45 -51 -79.5q-33 -34.5 -79.5 -55q-46.5 -20.5 -104.5 -20.5zt0 0zM285 706h49l107 -130h-50l-82 99l-82 -99l-50 0z" />
<glyph unicode="&#245;" horiz-adv-x="616" d="M308 30q44 0 82 16q38 16 65.5 44q27.5 28 43.5 66q16 38 16 82q0 44 -16 82.5q-16 38.5 -43.5 66.5q-27.5 28 -65.5 44q-38 16 -82 16q-44 0 -82 -16q-38 -16 -66 -44q-28 -28 -43.5 -66.5q-15.5 -38.5 -15.5 -82.5q0 -44 15.5 -82q15.5 -38 43.5 -66q28 -28 66 -44q38 -16 82 -16zt0 0zM308 -12q-58 0 -104.5 20.5q-46.5 20.5 -79.5 55q-33 34.5 -51 79.5q-18 45 -18 95q0 49 18 94.5q18 45.5 51 80.5q33 35 79.5 55.5q46.5 20.5 104.5 20.5q58 0 104.5 -20.5q46.5 -20.5 79.5 -55.5q33 -35 51 -80.5q18 -45.5 18 -94.5q0 -50 -18 -95q-18 -45 -51 -79.5q-33 -34.5 -79.5 -55q-46.5 -20.5 -104.5 -20.5zt0 0zM381 593q-20 0 -39 10q-19 10 -37 21.5q-18 11.5 -34.5 21.5q-16.5 10 -32.5 10q-22 0 -30.5 -17.5q-8.5 -17.5 -10.5 -39.5l-36 0q2 44 22 70.5q20 26.5 54 26.5q20 0 39 -9.5q19 -9.5 36.5 -21.5q17.5 -12 34 -21.5q16.5 -9.5 31.5 -9.5q23 0 31.5 17q8.5 17 10.5 40l36 0q-2 -44 -21.5 -71t-53.5 -27z" />
<glyph unicode="&#246;" horiz-adv-x="616" d="M308 30q44 0 82 16q38 16 65.5 44q27.5 28 43.5 66q16 38 16 82q0 44 -16 82.5q-16 38.5 -43.5 66.5q-27.5 28 -65.5 44q-38 16 -82 16q-44 0 -82 -16q-38 -16 -66 -44q-28 -28 -43.5 -66.5q-15.5 -38.5 -15.5 -82.5q0 -44 15.5 -82q15.5 -38 43.5 -66q28 -28 66 -44q38 -16 82 -16zt0 0zM308 -12q-58 0 -104.5 20.5q-46.5 20.5 -79.5 55q-33 34.5 -51 79.5q-18 45 -18 95q0 49 18 94.5q18 45.5 51 80.5q33 35 79.5 55.5q46.5 20.5 104.5 20.5q58 0 104.5 -20.5q46.5 -20.5 79.5 -55.5q33 -35 51 -80.5q18 -45.5 18 -94.5q0 -50 -18 -95q-18 -45 -51 -79.5q-33 -34.5 -79.5 -55q-46.5 -20.5 -104.5 -20.5zt0 0zM367 645q0 15 10.5 25.5q10.5 10.5 25.5 10.5q15 0 25.5 -10.5q10.5 -10.5 10.5 -25.5q0 -15 -10.5 -25.5q-10.5 -10.5 -25.5 -10.5q-15 0 -25.5 10.5q-10.5 10.5 -10.5 25.5zt0 0zM177 645q0 15 10.5 25.5q10.5 10.5 25.5 10.5q15 0 25.5 -10.5q10.5 -10.5 10.5 -25.5q0 -15 -10.5 -25.5q-10.5 -10.5 -25.5 -10.5q-15 0 -25.5 10.5t-10.5 25.5z" />
<glyph unicode="&#247;" horiz-adv-x="578" d="M289 86q-18 0 -30.5 12q-12.5 12 -12.5 30q0 19 12.5 31q12.5 12 30.5 12q18 0 30 -12q12 -12 12 -31q0 -18 -12 -30q-12 -12 -30 -12zt0 0zM70 344h438v-42h-438zM289 476q-18 0 -30.5 12.5q-12.5 12.5 -12.5 29.5q0 19 12.5 31q12.5 12 30.5 12q18 0 30 -12q12 -12 12 -31q0 -17 -12 -29.5t-30 -12.5z" />
<glyph unicode="&#248;" horiz-adv-x="616" d="M532 477l-47 -57q36 -35 56 -82.5q20 -47.5 20 -99.5q0 -50 -18 -95q-18 -45 -51 -79.5q-33 -34.5 -79.5 -55q-46.5 -20.5 -104.5 -20.5q-44 0 -81 11.5q-37 11.5 -67 32.5l-27 -32h-49l47 56q-37 35 -56.5 82q-19.5 47 -19.5 100q0 49 18 94.5q18 45.5 51 80.5q33 35 79.5 55.5q46.5 20.5 104.5 20.5q43 0 80 -12q37 -12 67 -33l28 33zM101 238q0 -45 15.5 -82.5q15.5 -37.5 43.5 -65.5l267 320q-25 17 -55 27q-30 10 -64 10q-44 0 -82 -16q-38 -16 -66 -44q-28 -28 -43.5 -66.5q-15.5 -38.5 -15.5 -82.5zt0 0zM308 30q44 0 82 16q38 16 65.5 44q27.5 28 43.5 66q16 38 16 82q0 44 -15.5 82q-15.5 38 -43.5 66l-268 -320q25 -17 55 -26.5t65 -9.5z" />
<glyph unicode="&#249;" horiz-adv-x="606" d="M515 477v-477h-45v83q-14 -17 -34.5 -34q-20.5 -17 -46 -30.5q-25.5 -13.5 -56.5 -22q-31 -8.5 -66 -8.5q-93 0 -139 52.5q-46 52.5 -46 146.5v290h45v-281q0 -54 15 -86.5q15 -32.5 38 -50q23 -17.5 49.5 -23.5q26.5 -6 50.5 -6q29 0 58 9.5q29 9.5 54 25.5q25 16 45.5 36q20.5 20 32.5 40l0 336zM196 707h62l96 -130l-49 0z" />
<glyph unicode="&#250;" horiz-adv-x="606" d="M515 477v-477h-45v83q-14 -17 -34.5 -34q-20.5 -17 -46 -30.5q-25.5 -13.5 -56.5 -22q-31 -8.5 -66 -8.5q-93 0 -139 52.5q-46 52.5 -46 146.5v290h45v-281q0 -54 15 -86.5q15 -32.5 38 -50q23 -17.5 49.5 -23.5q26.5 -6 50.5 -6q29 0 58 9.5q29 9.5 54 25.5q25 16 45.5 36q20.5 20 32.5 40l0 336zM345 707h61l-108 -130l-49 0z" />
<glyph unicode="&#251;" horiz-adv-x="606" d="M515 477v-477h-45v83q-14 -17 -34.5 -34q-20.5 -17 -46 -30.5q-25.5 -13.5 -56.5 -22q-31 -8.5 -66 -8.5q-93 0 -139 52.5q-46 52.5 -46 146.5v290h45v-281q0 -54 15 -86.5q15 -32.5 38 -50q23 -17.5 49.5 -23.5q26.5 -6 50.5 -6q29 0 58 9.5q29 9.5 54 25.5q25 16 45.5 36q20.5 20 32.5 40l0 336zM274 706h49l107 -130h-50l-82 99l-82 -99l-50 0z" />
<glyph unicode="&#252;" horiz-adv-x="606" d="M515 477v-477h-45v83q-14 -17 -34.5 -34q-20.5 -17 -46 -30.5q-25.5 -13.5 -56.5 -22q-31 -8.5 -66 -8.5q-93 0 -139 52.5q-46 52.5 -46 146.5v290h45v-281q0 -54 15 -86.5q15 -32.5 38 -50q23 -17.5 49.5 -23.5q26.5 -6 50.5 -6q29 0 58 9.5q29 9.5 54 25.5q25 16 45.5 36q20.5 20 32.5 40l0 336zM357 645q0 15 10.5 25.5q10.5 10.5 25.5 10.5q15 0 25.5 -10.5q10.5 -10.5 10.5 -25.5q0 -15 -10.5 -25.5q-10.5 -10.5 -25.5 -10.5q-15 0 -25.5 10.5q-10.5 10.5 -10.5 25.5zt0 0zM167 645q0 15 10.5 25.5q10.5 10.5 25.5 10.5q15 0 25.5 -10.5q10.5 -10.5 10.5 -25.5q0 -15 -10.5 -25.5q-10.5 -10.5 -25.5 -10.5q-15 0 -25.5 10.5t-10.5 25.5z" />
<glyph unicode="&#253;" horiz-adv-x="542" d="M101 -204q-20 0 -38 3.5q-18 3.5 -30 11.5l0 43q14 -8 29.5 -12q15.5 -4 33.5 -4q26 0 46 11q20 11 37.5 32.5q17.5 21.5 33.5 53q16 31.5 34 72.5l-221 470h51l193 -415l187 415h49l-241 -531q-31 -69 -68.5 -109.5q-37.5 -40.5 -95.5 -40.5zt0 0zM328 707h61l-108 -130l-49 0z" />
<glyph unicode="&#254;" horiz-adv-x="631" d="M332 489q55 0 100.5 -20.5q45.5 -20.5 77 -55q31.5 -34.5 49 -80q17.5 -45.5 17.5 -94.5q0 -50 -17.5 -95q-17.5 -45 -49 -80q-31.5 -35 -77 -55.5q-45.5 -20.5 -100.5 -20.5q-67 0 -117 27.5q-50 27.5 -80 69.5l0 -285h-45v900h45v-307q30 42 80 69q50 27 117 27zt0 0zM324 447q-31 0 -60 -8.5q-29 -8.5 -54 -24.5q-25 -16 -44 -37.5q-19 -21.5 -31 -47.5l0 -180q12 -26 31 -47.5q19 -21.5 44 -37.5q25 -16 54 -25q29 -9 60 -9q44 0 81.5 16q37.5 16 65 44q27.5 28 43 66.5q15.5 38.5 15.5 82.5q0 44 -15.5 82q-15.5 38 -43 66q-27.5 28 -65 44t-81.5 16z" />
<glyph unicode="&#255;" horiz-adv-x="542" d="M101 -204q-20 0 -38 3.5q-18 3.5 -30 11.5l0 43q14 -8 29.5 -12q15.5 -4 33.5 -4q26 0 46 11q20 11 37.5 32.5q17.5 21.5 33.5 53q16 31.5 34 72.5l-221 470h51l193 -415l187 415h49l-241 -531q-31 -69 -68.5 -109.5q-37.5 -40.5 -95.5 -40.5zt0 0zM325 645q0 15 10.5 25.5q10.5 10.5 25.5 10.5q15 0 25.5 -10.5q10.5 -10.5 10.5 -25.5q0 -15 -10.5 -25.5q-10.5 -10.5 -25.5 -10.5q-15 0 -25.5 10.5q-10.5 10.5 -10.5 25.5zt0 0zM135 645q0 15 10.5 25.5q10.5 10.5 25.5 10.5q15 0 25.5 -10.5q10.5 -10.5 10.5 -25.5q0 -15 -10.5 -25.5q-10.5 -10.5 -25.5 -10.5q-15 0 -25.5 10.5t-10.5 25.5z" />
<glyph unicode="&#256;" horiz-adv-x="743" d="M351 704h43l316 -704h-48l-93 206h-394l-93 -206h-49zM552 246l-180 398l-181 -398zM256 848h233v-40l-233 0z" />
<glyph unicode="&#257;" horiz-adv-x="589" d="M246 30q32 0 60.5 8.5q28.5 8.5 52.5 22q24 13.5 43 30.5q19 17 32 34l0 79q-13 9 -31.5 18.5q-18.5 9.5 -41 18q-22.5 8.5 -48.5 14q-26 5.5 -54 5.5q-77 0 -120 -31.5q-43 -31.5 -43 -83.5q0 -31 13 -53q13 -22 34 -35.5q21 -13.5 48 -20q27 -6.5 55 -6.5zt0 0zM233 -12q-35 0 -68 10q-33 10 -59 29.5q-26 19.5 -41.5 48.5q-15.5 29 -15.5 68q0 36 15.5 65q15.5 29 42 49q26.5 20 62.5 31q36 11 78 11q66 0 112 -17.5q46 -17.5 75 -34.5l0 63q0 71 -46 103.5q-46 32.5 -124 32.5q-52 0 -94.5 -17q-42.5 -17 -67.5 -34l0 46q24 16 67 31.5q43 15.5 103 15.5q43 0 81 -10q38 -10 66 -31q28 -21 44 -54q16 -33 16 -79v-212q0 -32 14 -50q14 -18 38 -18q16 0 28 6l0 -37q-8 -5 -18.5 -6.5q-10.5 -1.5 -20.5 -1.5q-29 0 -54 19q-25 19 -28 64q-32 -37 -82.5 -64q-50.5 -27 -122.5 -27zt0 0zM170 663h230v-38l-230 0z" />
<glyph unicode="&#258;" horiz-adv-x="743" d="M351 704h43l316 -704h-48l-93 206h-394l-93 -206h-49zM552 246l-180 398l-181 -398zM372 763q-26 0 -49 10q-23 10 -40.5 27.5q-17.5 17.5 -27.5 41q-10 23.5 -11 51.5l40 0q1 -39 25.5 -65.5q24.5 -26.5 62.5 -26.5q38 0 63 26.5q25 26.5 26 65.5l39 0q0 -28 -10.5 -51.5q-10.5 -23.5 -27.5 -41q-17 -17.5 -40.5 -27.5t-49.5 -10z" />
<glyph unicode="&#259;" horiz-adv-x="589" d="M246 30q32 0 60.5 8.5q28.5 8.5 52.5 22q24 13.5 43 30.5q19 17 32 34l0 79q-13 9 -31.5 18.5q-18.5 9.5 -41 18q-22.5 8.5 -48.5 14q-26 5.5 -54 5.5q-77 0 -120 -31.5q-43 -31.5 -43 -83.5q0 -31 13 -53q13 -22 34 -35.5q21 -13.5 48 -20q27 -6.5 55 -6.5zt0 0zM233 -12q-35 0 -68 10q-33 10 -59 29.5q-26 19.5 -41.5 48.5q-15.5 29 -15.5 68q0 36 15.5 65q15.5 29 42 49q26.5 20 62.5 31q36 11 78 11q66 0 112 -17.5q46 -17.5 75 -34.5l0 63q0 71 -46 103.5q-46 32.5 -124 32.5q-52 0 -94.5 -17q-42.5 -17 -67.5 -34l0 46q24 16 67 31.5q43 15.5 103 15.5q43 0 81 -10q38 -10 66 -31q28 -21 44 -54q16 -33 16 -79v-212q0 -32 14 -50q14 -18 38 -18q16 0 28 6l0 -37q-8 -5 -18.5 -6.5q-10.5 -1.5 -20.5 -1.5q-29 0 -54 19q-25 19 -28 64q-32 -37 -82.5 -64q-50.5 -27 -122.5 -27zt0 0zM281 578q-26 0 -49 9.5q-23 9.5 -40.5 27q-17.5 17.5 -28 41q-10.5 23.5 -10.5 51.5l40 0q1 -38 25.5 -64.5q24.5 -26.5 62.5 -26.5q38 0 63 26.5q25 26.5 26 64.5l39 0q0 -28 -10.5 -51.5q-10.5 -23.5 -28 -41q-17.5 -17.5 -40.5 -27t-49 -9.5z" />
<glyph unicode="&#260;" horiz-adv-x="743" d="M739 -193q-50 0 -78 28.5q-28 28.5 -28 70.5q0 32 13 56.5q13 24.5 24 37.5l-8 0l-93 206h-394l-93 -206h-49l318 704h43l316 -704q-17 -19 -28 -40.5q-11 -21.5 -11 -48.5q0 -32 21.5 -51q21.5 -19 54.5 -19q11 0 20 1.5q9 1.5 20 4.5l0 -34q-8 -2 -19.5 -4q-11.5 -2 -28.5 -2zt0 0zM552 246l-180 398l-181 -398z" />
<glyph unicode="&#261;" horiz-adv-x="589" d="M588 -189q-50 0 -78 28.5q-28 28.5 -28 70.5q0 28 9.5 50q9.5 22 20.5 36q-27 2 -49.5 21.5q-22.5 19.5 -24.5 61.5q-32 -37 -82.5 -64q-50.5 -27 -122.5 -27q-35 0 -68 10q-33 10 -59 29.5q-26 19.5 -41.5 48.5q-15.5 29 -15.5 68q0 36 15.5 65q15.5 29 42 49q26.5 20 62.5 31q36 11 78 11q66 0 112 -17.5q46 -17.5 75 -34.5l0 63q0 71 -46 103.5q-46 32.5 -124 32.5q-52 0 -94.5 -17q-42.5 -17 -67.5 -34l0 46q24 16 67 31.5q43 15.5 103 15.5q43 0 81 -10q38 -10 66 -31q28 -21 44 -54q16 -33 16 -79v-212q0 -32 14 -50q14 -18 38 -18q16 0 28 6l0 -37q-17 -19 -28 -40.5q-11 -21.5 -11 -48.5q0 -32 21.5 -51q21.5 -19 54.5 -19q11 0 20 1.5q9 1.5 20 4.5l0 -34q-8 -2 -19.5 -4q-11.5 -2 -28.5 -2zt0 0zM246 30q32 0 60.5 8.5q28.5 8.5 52.5 22q24 13.5 43 30.5q19 17 32 34l0 79q-13 9 -31.5 18.5q-18.5 9.5 -41 18q-22.5 8.5 -48.5 14q-26 5.5 -54 5.5q-77 0 -120 -31.5q-43 -31.5 -43 -83.5q0 -31 13 -53q13 -22 34 -35.5q21 -13.5 48 -20t55 -6.5z" />
<glyph unicode="&#262;" horiz-adv-x="693" d="M427 -12q-74 0 -138.5 27q-64.5 27 -112 75q-47.5 48 -74.5 114.5q-27 66.5 -27 145.5q0 79 27 145.5q27 66.5 74.5 114.5q47.5 48 111.5 75q64 27 139 27q114 0 200 -55l0 -50q-44 29 -92.5 45q-48.5 16 -106.5 16q-64 0 -120 -24q-56 -24 -97 -66q-41 -42 -65 -100.5q-24 -58.5 -24 -127.5q0 -69 24 -127.5q24 -58.5 65 -100.5q41 -42 97 -66q56 -24 121 -24q63 0 116.5 19q53.5 19 97.5 54l0 -51q-87 -66 -216 -66zt0 0zM466 893h61l-108 -130l-49 0z" />
<glyph unicode="&#263;" horiz-adv-x="522" d="M306 -12q-56 0 -102 20q-46 20 -79 54q-33 34 -51.5 79.5q-18.5 45.5 -18.5 97.5q0 51 18.5 96.5q18.5 45.5 51.5 79.5q33 34 79.5 54q46.5 20 102.5 20q42 0 78.5 -10q36.5 -10 65.5 -27l0 -44q-32 19 -67.5 29q-35.5 10 -71.5 10q-45 0 -83.5 -16q-38.5 -16 -67 -44q-28.5 -28 -44.5 -66q-16 -38 -16 -83q0 -45 16 -83q16 -38 44.5 -65.5q28.5 -27.5 67 -43.5q38.5 -16 83.5 -16q44 0 80.5 11.5q36.5 11.5 67.5 33.5l0 -45q-32 -21 -71 -31.5q-39 -10.5 -83 -10.5zt0 0zM346 707h61l-108 -130l-49 0z" />
<glyph unicode="&#264;" horiz-adv-x="693" d="M427 -12q-74 0 -138.5 27q-64.5 27 -112 75q-47.5 48 -74.5 114.5q-27 66.5 -27 145.5q0 79 27 145.5q27 66.5 74.5 114.5q47.5 48 111.5 75q64 27 139 27q114 0 200 -55l0 -50q-44 29 -92.5 45q-48.5 16 -106.5 16q-64 0 -120 -24q-56 -24 -97 -66q-41 -42 -65 -100.5q-24 -58.5 -24 -127.5q0 -69 24 -127.5q24 -58.5 65 -100.5q41 -42 97 -66q56 -24 121 -24q63 0 116.5 19q53.5 19 97.5 54l0 -51q-87 -66 -216 -66zt0 0zM383 893h49l107 -130h-50l-82 99l-82 -99l-50 0z" />
<glyph unicode="&#265;" horiz-adv-x="524" d="M306 -12q-56 0 -102 20q-46 20 -79 54q-33 34 -51.5 79.5q-18.5 45.5 -18.5 97.5q0 51 18.5 96.5q18.5 45.5 51.5 79.5q33 34 79.5 54q46.5 20 102.5 20q42 0 78.5 -10q36.5 -10 65.5 -27l0 -44q-32 19 -67.5 29q-35.5 10 -71.5 10q-45 0 -83.5 -16q-38.5 -16 -67 -44q-28.5 -28 -44.5 -66q-16 -38 -16 -83q0 -45 16 -83q16 -38 44.5 -65.5q28.5 -27.5 67 -43.5q38.5 -16 83.5 -16q44 0 80.5 11.5q36.5 11.5 67.5 33.5l0 -45q-32 -21 -71 -31.5q-39 -10.5 -83 -10.5zt0 0zM263 706h49l107 -130h-50l-82 99l-82 -99l-50 0z" />
<glyph unicode="&#266;" horiz-adv-x="693" d="M427 -12q-74 0 -138.5 27q-64.5 27 -112 75q-47.5 48 -74.5 114.5q-27 66.5 -27 145.5q0 79 27 145.5q27 66.5 74.5 114.5q47.5 48 111.5 75q64 27 139 27q114 0 200 -55l0 -50q-44 29 -92.5 45q-48.5 16 -106.5 16q-64 0 -120 -24q-56 -24 -97 -66q-41 -42 -65 -100.5q-24 -58.5 -24 -127.5q0 -69 24 -127.5q24 -58.5 65 -100.5q41 -42 97 -66q56 -24 121 -24q63 0 116.5 19q53.5 19 97.5 54l0 -51q-87 -66 -216 -66zt0 0zM383 825q0 16 11 27q11 11 27 11q16 0 27 -11q11 -11 11 -27q0 -16 -11 -27q-11 -11 -27 -11q-16 0 -27 11t-11 27z" />
<glyph unicode="&#267;" horiz-adv-x="524" d="M306 -12q-56 0 -102 20q-46 20 -79 54q-33 34 -51.5 79.5q-18.5 45.5 -18.5 97.5q0 51 18.5 96.5q18.5 45.5 51.5 79.5q33 34 79.5 54q46.5 20 102.5 20q42 0 78.5 -10q36.5 -10 65.5 -27l0 -44q-32 19 -67.5 29q-35.5 10 -71.5 10q-45 0 -83.5 -16q-38.5 -16 -67 -44q-28.5 -28 -44.5 -66q-16 -38 -16 -83q0 -45 16 -83q16 -38 44.5 -65.5q28.5 -27.5 67 -43.5q38.5 -16 83.5 -16q44 0 80.5 11.5q36.5 11.5 67.5 33.5l0 -45q-32 -21 -71 -31.5q-39 -10.5 -83 -10.5zt0 0zM267 646q0 16 11 27q11 11 27 11q16 0 27 -11q11 -11 11 -27q0 -16 -11 -27q-11 -11 -27 -11q-16 0 -27 11t-11 27z" />
<glyph unicode="&#268;" horiz-adv-x="693" d="M427 -12q-74 0 -138.5 27q-64.5 27 -112 75q-47.5 48 -74.5 114.5q-27 66.5 -27 145.5q0 79 27 145.5q27 66.5 74.5 114.5q47.5 48 111.5 75q64 27 139 27q114 0 200 -55l0 -50q-44 29 -92.5 45q-48.5 16 -106.5 16q-64 0 -120 -24q-56 -24 -97 -66q-41 -42 -65 -100.5q-24 -58.5 -24 -127.5q0 -69 24 -127.5q24 -58.5 65 -100.5q41 -42 97 -66q56 -24 121 -24q63 0 116.5 19q53.5 19 97.5 54l0 -51q-87 -66 -216 -66zt0 0zM287 893h49l82 -99l82 99h50l-108 -130l-48 0z" />
<glyph unicode="&#269;" horiz-adv-x="522" d="M306 -12q-56 0 -102 20q-46 20 -79 54q-33 34 -51.5 79.5q-18.5 45.5 -18.5 97.5q0 51 18.5 96.5q18.5 45.5 51.5 79.5q33 34 79.5 54q46.5 20 102.5 20q42 0 78.5 -10q36.5 -10 65.5 -27l0 -44q-32 19 -67.5 29q-35.5 10 -71.5 10q-45 0 -83.5 -16q-38.5 -16 -67 -44q-28.5 -28 -44.5 -66q-16 -38 -16 -83q0 -45 16 -83q16 -38 44.5 -65.5q28.5 -27.5 67 -43.5q38.5 -16 83.5 -16q44 0 80.5 11.5q36.5 11.5 67.5 33.5l0 -45q-32 -21 -71 -31.5q-39 -10.5 -83 -10.5zt0 0zM169 707h49l82 -99l82 99h50l-108 -130l-48 0z" />
<glyph unicode="&#270;" horiz-adv-x="774" d="M105 700h217q84 0 153.5 -25.5q69.5 -25.5 119 -71.5q49.5 -46 77 -110.5q27.5 -64.5 27.5 -142.5q0 -78 -27.5 -142.5q-27.5 -64.5 -77 -110.5q-49.5 -46 -119 -71.5q-69.5 -25.5 -153.5 -25.5h-217zM314 43q79 0 141.5 22q62.5 22 106 62.5q43.5 40.5 67 97q23.5 56.5 23.5 125.5q0 69 -23.5 125.5q-23.5 56.5 -67 97q-43.5 40.5 -106 62.5q-62.5 22 -141.5 22h-163v-614zM208 893h49l82 -99l82 99h50l-108 -130l-48 0z" />
<glyph unicode="&#271;" horiz-adv-x="732" d="M298 -12q-56 0 -100.5 20.5q-44.5 20.5 -76.5 55q-32 34.5 -49 79.5q-17 45 -17 95q0 49 17 94.5q17 45.5 49 80.5q32 35 76.5 55.5q44.5 20.5 100.5 20.5q67 0 117 -27.5q50 -27.5 80 -69.5l0 308h45v-700h-45v84q-30 -42 -80 -69q-50 -27 -117 -27zt0 0zM306 30q31 0 60 8.5q29 8.5 54 24.5q25 16 44 37.5q19 21.5 31 47.5l0 180q-12 25 -31 47q-19 22 -44 38q-25 16 -54 25q-29 9 -60 9q-44 0 -81.5 -16q-37.5 -16 -65 -44q-27.5 -28 -43 -66.5q-15.5 -38.5 -15.5 -82.5q0 -44 15.5 -82q15.5 -38 43 -66q27.5 -28 65 -44q37.5 -16 81.5 -16zt0 0zM683 699h50l-65 -168l-40 0z" />
<glyph unicode="&#272;" horiz-adv-x="818" d="M149 332h-117v43h117v325h217q84 0 153.5 -25.5q69.5 -25.5 119 -71.5q49.5 -46 77 -110.5q27.5 -64.5 27.5 -142.5q0 -78 -27.5 -142.5q-27.5 -64.5 -77 -110.5q-49.5 -46 -119 -71.5q-69.5 -25.5 -153.5 -25.5h-217zM358 43q79 0 141.5 22q62.5 22 106 62.5q43.5 40.5 67 97q23.5 56.5 23.5 125.5q0 69 -23.5 125.5q-23.5 56.5 -67 97q-43.5 40.5 -106 62.5q-62.5 22 -141.5 22h-163v-282h171v-43h-171l0 -289z" />
<glyph unicode="&#273;" horiz-adv-x="630" d="M369 596h127v104h45v-104h100v-41h-100v-555h-45v84q-30 -42 -80 -69q-50 -27 -117 -27q-56 0 -101 20.5q-45 20.5 -76.5 55q-31.5 34.5 -49 79.5q-17.5 45 -17.5 95q0 49 17.5 94.5q17.5 45.5 49 80.5q31.5 35 76.5 55.5q45 20.5 101 20.5q67 0 117 -27.5q50 -27.5 80 -69.5l0 163h-127zM307 30q31 0 60 8.5q29 8.5 54 24.5q25 16 44 37.5q19 21.5 31 47.5l0 180q-12 25 -31 47q-19 22 -44 38q-25 16 -54 25q-29 9 -60 9q-44 0 -81.5 -16q-37.5 -16 -65 -44q-27.5 -28 -43 -66.5q-15.5 -38.5 -15.5 -82.5q0 -44 15.5 -82q15.5 -38 43 -66q27.5 -28 65 -44t81.5 -16z" />
<glyph unicode="&#274;" horiz-adv-x="637" d="M105 700h468v-43h-422v-259h349v-43h-349v-312h438v-43h-484zM230 848h233v-40l-233 0z" />
<glyph unicode="&#275;" horiz-adv-x="567" d="M315 -12q-56 0 -103.5 18.5q-47.5 18.5 -82 51.5q-34.5 33 -54.5 79q-20 46 -20 101q0 54 17 99.5q17 45.5 48.5 79.5q31.5 34 75 53q43.5 19 96.5 19q63 0 105 -24.5q42 -24.5 67.5 -61q25.5 -36.5 36.5 -79q11 -42.5 11 -77.5v-15h-412q1 -45 17.5 -82q16.5 -37 46 -64q29.5 -27 69.5 -41.5q40 -14.5 88 -14.5q47 0 86 12.5q39 12.5 68 32.5l0 -44q-24 -18 -66.5 -30.5q-42.5 -12.5 -93.5 -12.5zt0 0zM467 271q0 26 -9.5 56.5q-9.5 30.5 -30 57q-20.5 26.5 -54 44.5q-33.5 18 -82.5 18q-45 0 -79 -15.5q-34 -15.5 -58 -41q-24 -25.5 -37.5 -57q-13.5 -31.5 -15.5 -62.5zM176 663h230v-38l-230 0z" />
<glyph unicode="&#276;" horiz-adv-x="637" d="M105 700h468v-43h-422v-259h349v-43h-349v-312h438v-43h-484zM347 763q-26 0 -49 10q-23 10 -40.5 27.5q-17.5 17.5 -27.5 41q-10 23.5 -11 51.5l40 0q1 -39 25.5 -65.5q24.5 -26.5 62.5 -26.5q38 0 63 26.5q25 26.5 26 65.5l39 0q0 -28 -10.5 -51.5q-10.5 -23.5 -27.5 -41q-17 -17.5 -40.5 -27.5t-49.5 -10z" />
<glyph unicode="&#277;" horiz-adv-x="567" d="M315 -12q-56 0 -103.5 18.5q-47.5 18.5 -82 51.5q-34.5 33 -54.5 79q-20 46 -20 101q0 54 17 99.5q17 45.5 48.5 79.5q31.5 34 75 53q43.5 19 96.5 19q63 0 105 -24.5q42 -24.5 67.5 -61q25.5 -36.5 36.5 -79q11 -42.5 11 -77.5v-15h-412q1 -45 17.5 -82q16.5 -37 46 -64q29.5 -27 69.5 -41.5q40 -14.5 88 -14.5q47 0 86 12.5q39 12.5 68 32.5l0 -44q-24 -18 -66.5 -30.5q-42.5 -12.5 -93.5 -12.5zt0 0zM467 271q0 26 -9.5 56.5q-9.5 30.5 -30 57q-20.5 26.5 -54 44.5q-33.5 18 -82.5 18q-45 0 -79 -15.5q-34 -15.5 -58 -41q-24 -25.5 -37.5 -57q-13.5 -31.5 -15.5 -62.5zM290 578q-26 0 -49 9.5q-23 9.5 -40.5 27q-17.5 17.5 -28 41q-10.5 23.5 -10.5 51.5l40 0q1 -38 25.5 -64.5q24.5 -26.5 62.5 -26.5q38 0 63 26.5q25 26.5 26 64.5l39 0q0 -28 -10.5 -51.5q-10.5 -23.5 -28 -41q-17.5 -17.5 -40.5 -27t-49 -9.5z" />
<glyph unicode="&#278;" horiz-adv-x="637" d="M105 700h468v-43h-422v-259h349v-43h-349v-312h438v-43h-484zM308 825q0 16 11 27q11 11 27 11q16 0 27 -11q11 -11 11 -27q0 -16 -11 -27q-11 -11 -27 -11q-16 0 -27 11t-11 27z" />
<glyph unicode="&#279;" horiz-adv-x="567" d="M315 -12q-56 0 -103.5 18.5q-47.5 18.5 -82 51.5q-34.5 33 -54.5 79q-20 46 -20 101q0 54 17 99.5q17 45.5 48.5 79.5q31.5 34 75 53q43.5 19 96.5 19q63 0 105 -24.5q42 -24.5 67.5 -61q25.5 -36.5 36.5 -79q11 -42.5 11 -77.5v-15h-412q1 -45 17.5 -82q16.5 -37 46 -64q29.5 -27 69.5 -41.5q40 -14.5 88 -14.5q47 0 86 12.5q39 12.5 68 32.5l0 -44q-24 -18 -66.5 -30.5q-42.5 -12.5 -93.5 -12.5zt0 0zM467 271q0 26 -9.5 56.5q-9.5 30.5 -30 57q-20.5 26.5 -54 44.5q-33.5 18 -82.5 18q-45 0 -79 -15.5q-34 -15.5 -58 -41q-24 -25.5 -37.5 -57q-13.5 -31.5 -15.5 -62.5zM246 646q0 16 11 27q11 11 27 11q16 0 27 -11q11 -11 11 -27q0 -16 -11 -27q-11 -11 -27 -11q-16 0 -27 11t-11 27z" />
<glyph unicode="&#280;" horiz-adv-x="638" d="M105 700h468v-43h-422v-259h349v-43h-349v-312h438v-43q-17 -19 -28 -40.5q-11 -21.5 -11 -48.5q0 -32 21.5 -51q21.5 -19 54.5 -19q11 0 20 1.5q9 1.5 20 4.5l0 -34q-8 -2 -19.5 -4q-11.5 -2 -28.5 -2q-50 0 -78 28.5q-28 28.5 -28 70.5q0 32 13 56.5q13 24.5 24 37.5l-444 0z" />
<glyph unicode="&#281;" horiz-adv-x="567" d="M504 -162q-50 0 -78 28.5q-28 28.5 -28 70.5q0 20 4.5 36q4.5 16 12.5 29q-22 -6 -47 -10q-25 -4 -53 -4q-56 0 -103.5 18.5q-47.5 18.5 -82 51.5q-34.5 33 -54.5 79q-20 46 -20 101q0 54 17 99.5q17 45.5 48.5 79.5q31.5 34 75 53q43.5 19 96.5 19q63 0 105 -24.5q42 -24.5 67.5 -61q25.5 -36.5 36.5 -79q11 -42.5 11 -77.5v-15h-412q1 -45 17.5 -82q16.5 -37 46 -64q29.5 -27 69.5 -41.5q40 -14.5 88 -14.5q47 0 86 12.5q39 12.5 68 32.5l0 -44q-17 -19 -28 -40.5q-11 -21.5 -11 -48.5q0 -32 21.5 -51q21.5 -19 54.5 -19q11 0 20 1.5q9 1.5 20 4.5l0 -34q-8 -2 -19.5 -4q-11.5 -2 -28.5 -2zt0 0zM467 271q0 26 -9.5 56.5q-9.5 30.5 -30 57q-20.5 26.5 -54 44.5q-33.5 18 -82.5 18q-45 0 -79 -15.5q-34 -15.5 -58 -41q-24 -25.5 -37.5 -57q-13.5 -31.5 -15.5 -62.5z" />
<glyph unicode="&#282;" horiz-adv-x="637" d="M105 700h468v-43h-422v-259h349v-43h-349v-312h438v-43h-484zM215 893h49l82 -99l82 99h50l-108 -130l-48 0z" />
<glyph unicode="&#283;" horiz-adv-x="567" d="M315 -12q-56 0 -103.5 18.5q-47.5 18.5 -82 51.5q-34.5 33 -54.5 79q-20 46 -20 101q0 54 17 99.5q17 45.5 48.5 79.5q31.5 34 75 53q43.5 19 96.5 19q63 0 105 -24.5q42 -24.5 67.5 -61q25.5 -36.5 36.5 -79q11 -42.5 11 -77.5v-15h-412q1 -45 17.5 -82q16.5 -37 46 -64q29.5 -27 69.5 -41.5q40 -14.5 88 -14.5q47 0 86 12.5q39 12.5 68 32.5l0 -44q-24 -18 -66.5 -30.5q-42.5 -12.5 -93.5 -12.5zt0 0zM467 271q0 26 -9.5 56.5q-9.5 30.5 -30 57q-20.5 26.5 -54 44.5q-33.5 18 -82.5 18q-45 0 -79 -15.5q-34 -15.5 -58 -41q-24 -25.5 -37.5 -57q-13.5 -31.5 -15.5 -62.5zM158 707h49l82 -99l82 99h50l-108 -130l-48 0z" />
<glyph unicode="&#284;" horiz-adv-x="782" d="M426 -12q-74 0 -138 27q-64 27 -111.5 75q-47.5 48 -74.5 114.5q-27 66.5 -27 145.5q0 79 27 145.5q27 66.5 74 114.5q47 48 111.5 75q64.5 27 138.5 27q65 0 123.5 -18.5q58.5 -18.5 104.5 -54.5l0 -49q-49 38 -107 58q-58 20 -118 20q-65 0 -121 -23.5q-56 -23.5 -97.5 -66q-41.5 -42.5 -65 -101q-23.5 -58.5 -23.5 -128.5q0 -69 23.5 -127.5q23.5 -58.5 65 -100.5q41.5 -42 97 -65.5q55.5 -23.5 118.5 -23.5q66 0 123.5 20.5q57.5 20.5 97.5 62.5l0 286h46v-303q-44 -48 -111.5 -79q-67.5 -31 -155.5 -31zt0 0zM382 893h49l107 -130h-50l-82 99l-82 -99l-50 0z" />
<glyph unicode="&#285;" horiz-adv-x="630" d="M540 477v-456q0 -57 -19.5 -99q-19.5 -42 -53.5 -70q-34 -28 -80 -42q-46 -14 -99 -14q-51 0 -101 13.5q-50 13.5 -83 31.5l0 46q38 -23 86 -36q48 -13 95 -13q45 0 83.5 10.5q38.5 10.5 66.5 33q28 22.5 44 57q16 34.5 16 82.5v66q-30 -42 -80 -68.5q-50 -26.5 -116 -26.5q-56 0 -101 20.5q-45 20.5 -76.5 54.5q-31.5 34 -49 79q-17.5 45 -17.5 95q0 49 17.5 94q17.5 45 49 79q31.5 34 76.5 54.5q45 20.5 101 20.5q66 0 116 -26.5q50 -26.5 80 -68.5l0 83zM495 330q-23 52 -74 84.5q-51 32.5 -113 32.5q-45 0 -82.5 -15.5q-37.5 -15.5 -65.5 -43.5q-28 -28 -43.5 -65.5q-15.5 -37.5 -15.5 -81.5q0 -44 15.5 -82q15.5 -38 43.5 -66q28 -28 65.5 -43.5q37.5 -15.5 82.5 -15.5q62 0 113 32.5q51 32.5 74 84.5zM285 706h49l107 -130h-50l-82 99l-82 -99l-50 0z" />
<glyph unicode="&#286;" horiz-adv-x="782" d="M426 -12q-74 0 -138 27q-64 27 -111.5 75q-47.5 48 -74.5 114.5q-27 66.5 -27 145.5q0 79 27 145.5q27 66.5 74 114.5q47 48 111.5 75q64.5 27 138.5 27q65 0 123.5 -18.5q58.5 -18.5 104.5 -54.5l0 -49q-49 38 -107 58q-58 20 -118 20q-65 0 -121 -23.5q-56 -23.5 -97.5 -66q-41.5 -42.5 -65 -101q-23.5 -58.5 -23.5 -128.5q0 -69 23.5 -127.5q23.5 -58.5 65 -100.5q41.5 -42 97 -65.5q55.5 -23.5 118.5 -23.5q66 0 123.5 20.5q57.5 20.5 97.5 62.5l0 286h46v-303q-44 -48 -111.5 -79q-67.5 -31 -155.5 -31zt0 0zM420 765q-26 0 -49 10q-23 10 -40.5 27.5q-17.5 17.5 -27.5 41q-10 23.5 -11 51.5l40 0q1 -39 25.5 -65.5q24.5 -26.5 62.5 -26.5q38 0 63 26.5q25 26.5 26 65.5l39 0q0 -28 -10.5 -51.5q-10.5 -23.5 -27.5 -41q-17 -17.5 -40.5 -27.5t-49.5 -10z" />
<glyph unicode="&#287;" horiz-adv-x="630" d="M540 477v-456q0 -57 -19.5 -99q-19.5 -42 -53.5 -70q-34 -28 -80 -42q-46 -14 -99 -14q-51 0 -101 13.5q-50 13.5 -83 31.5l0 46q38 -23 86 -36q48 -13 95 -13q45 0 83.5 10.5q38.5 10.5 66.5 33q28 22.5 44 57q16 34.5 16 82.5v66q-30 -42 -80 -68.5q-50 -26.5 -116 -26.5q-56 0 -101 20.5q-45 20.5 -76.5 54.5q-31.5 34 -49 79q-17.5 45 -17.5 95q0 49 17.5 94q17.5 45 49 79q31.5 34 76.5 54.5q45 20.5 101 20.5q66 0 116 -26.5q50 -26.5 80 -68.5l0 83zM495 330q-23 52 -74 84.5q-51 32.5 -113 32.5q-45 0 -82.5 -15.5q-37.5 -15.5 -65.5 -43.5q-28 -28 -43.5 -65.5q-15.5 -37.5 -15.5 -81.5q0 -44 15.5 -82q15.5 -38 43.5 -66q28 -28 65.5 -43.5q37.5 -15.5 82.5 -15.5q62 0 113 32.5q51 32.5 74 84.5zM304 578q-26 0 -49 9.5q-23 9.5 -40.5 27q-17.5 17.5 -28 41q-10.5 23.5 -10.5 51.5l40 0q1 -38 25.5 -64.5q24.5 -26.5 62.5 -26.5q38 0 63 26.5q25 26.5 26 64.5l39 0q0 -28 -10.5 -51.5q-10.5 -23.5 -28 -41q-17.5 -17.5 -40.5 -27t-49 -9.5z" />
<glyph unicode="&#288;" horiz-adv-x="782" d="M426 -12q-74 0 -138 27q-64 27 -111.5 75q-47.5 48 -74.5 114.5q-27 66.5 -27 145.5q0 79 27 145.5q27 66.5 74 114.5q47 48 111.5 75q64.5 27 138.5 27q65 0 123.5 -18.5q58.5 -18.5 104.5 -54.5l0 -49q-49 38 -107 58q-58 20 -118 20q-65 0 -121 -23.5q-56 -23.5 -97.5 -66q-41.5 -42.5 -65 -101q-23.5 -58.5 -23.5 -128.5q0 -69 23.5 -127.5q23.5 -58.5 65 -100.5q41.5 -42 97 -65.5q55.5 -23.5 118.5 -23.5q66 0 123.5 20.5q57.5 20.5 97.5 62.5l0 286h46v-303q-44 -48 -111.5 -79q-67.5 -31 -155.5 -31zt0 0zM384 825q0 16 11 27q11 11 27 11q16 0 27 -11q11 -11 11 -27q0 -16 -11 -27q-11 -11 -27 -11q-16 0 -27 11t-11 27z" />
<glyph unicode="&#289;" horiz-adv-x="630" d="M540 477v-456q0 -57 -19.5 -99q-19.5 -42 -53.5 -70q-34 -28 -80 -42q-46 -14 -99 -14q-51 0 -101 13.5q-50 13.5 -83 31.5l0 46q38 -23 86 -36q48 -13 95 -13q45 0 83.5 10.5q38.5 10.5 66.5 33q28 22.5 44 57q16 34.5 16 82.5v66q-30 -42 -80 -68.5q-50 -26.5 -116 -26.5q-56 0 -101 20.5q-45 20.5 -76.5 54.5q-31.5 34 -49 79q-17.5 45 -17.5 95q0 49 17.5 94q17.5 45 49 79q31.5 34 76.5 54.5q45 20.5 101 20.5q66 0 116 -26.5q50 -26.5 80 -68.5l0 83zM495 330q-23 52 -74 84.5q-51 32.5 -113 32.5q-45 0 -82.5 -15.5q-37.5 -15.5 -65.5 -43.5q-28 -28 -43.5 -65.5q-15.5 -37.5 -15.5 -81.5q0 -44 15.5 -82q15.5 -38 43.5 -66q28 -28 65.5 -43.5q37.5 -15.5 82.5 -15.5q62 0 113 32.5q51 32.5 74 84.5zM270 646q0 16 11 27q11 11 27 11q16 0 27 -11q11 -11 11 -27q0 -16 -11 -27q-11 -11 -27 -11q-16 0 -27 11t-11 27z" />
<glyph unicode="&#290;" horiz-adv-x="782" d="M426 -12q-74 0 -138 27q-64 27 -111.5 75q-47.5 48 -74.5 114.5q-27 66.5 -27 145.5q0 79 27 145.5q27 66.5 74 114.5q47 48 111.5 75q64.5 27 138.5 27q65 0 123.5 -18.5q58.5 -18.5 104.5 -54.5l0 -49q-49 38 -107 58q-58 20 -118 20q-65 0 -121 -23.5q-56 -23.5 -97.5 -66q-41.5 -42.5 -65 -101q-23.5 -58.5 -23.5 -128.5q0 -69 23.5 -127.5q23.5 -58.5 65 -100.5q41.5 -42 97 -65.5q55.5 -23.5 118.5 -23.5q66 0 123.5 20.5q57.5 20.5 97.5 62.5l0 286h46v-303q-44 -48 -111.5 -79q-67.5 -31 -155.5 -31zt0 0zM411 -50h50l-65 -168l-40 0z" />
<glyph unicode="&#291;" horiz-adv-x="630" d="M540 477v-456q0 -57 -19.5 -99q-19.5 -42 -53.5 -70q-34 -28 -80 -42q-46 -14 -99 -14q-51 0 -101 13.5q-50 13.5 -83 31.5l0 46q38 -23 86 -36q48 -13 95 -13q45 0 83.5 10.5q38.5 10.5 66.5 33q28 22.5 44 57q16 34.5 16 82.5v66q-30 -42 -80 -68.5q-50 -26.5 -116 -26.5q-56 0 -101 20.5q-45 20.5 -76.5 54.5q-31.5 34 -49 79q-17.5 45 -17.5 95q0 49 17.5 94q17.5 45 49 79q31.5 34 76.5 54.5q45 20.5 101 20.5q66 0 116 -26.5q50 -26.5 80 -68.5l0 83zM495 330q-23 52 -74 84.5q-51 32.5 -113 32.5q-45 0 -82.5 -15.5q-37.5 -15.5 -65.5 -43.5q-28 -28 -43.5 -65.5q-15.5 -37.5 -15.5 -81.5q0 -44 15.5 -82q15.5 -38 43.5 -66q28 -28 65.5 -43.5q37.5 -15.5 82.5 -15.5q62 0 113 32.5q51 32.5 74 84.5zM314 552h-50l65 168l40 0z" />
<glyph unicode="&#292;" horiz-adv-x="760" d="M105 700h46v-302h457v302h46v-700h-46v355h-457v-355h-46zM355 893h49l107 -130h-50l-82 99l-82 -99l-50 0z" />
<glyph unicode="&#293;" horiz-adv-x="602" d="M88 0v700h45v-306q14 17 34.5 34q20.5 17 46 30.5q25.5 13.5 56.5 22q31 8.5 66 8.5q93 0 139 -52.5q46 -52.5 46 -146.5v-290h-45v281q0 54 -15 86.5q-15 32.5 -38 50q-23 17.5 -49.5 23.5q-26.5 6 -50.5 6q-29 0 -58 -10q-29 -10 -54 -25.5q-25 -15.5 -45.5 -35.5q-20.5 -20 -32.5 -40l0 -336zM88 893h49l107 -130h-50l-82 99l-82 -99l-50 0z" />
<glyph unicode="&#294;" horiz-adv-x="839" d="M145 548h-95v37h95v115h46v-115h457v115h46v-115h95v-37h-95v-548h-46v355h-457v-355h-46zM648 398v150h-457l0 -150z" />
<glyph unicode="&#295;" horiz-adv-x="632" d="M118 0v545h-102v41h102v114h45v-114h136v-41h-136v-208q14 17 34.5 34q20.5 17 46 30.5q25.5 13.5 56.5 22q31 8.5 66 8.5q93 0 139 -52.5q46 -52.5 46 -146.5v-233h-45v224q0 54 -15 86.5q-15 32.5 -38 50q-23 17.5 -49.5 23.5q-26.5 6 -50.5 6q-29 0 -58 -10q-29 -10 -54 -25.5q-25 -15.5 -45.5 -35.5q-20.5 -20 -32.5 -40l0 -279z" />
<glyph unicode="&#296;" horiz-adv-x="269" d="M112 700h46v-700h-46zM207 776q-20 0 -38.5 10q-18.5 10 -36.5 21.5q-18 11.5 -34.5 21.5q-16.5 10 -31.5 10q-23 0 -32 -17.5q-9 -17.5 -11 -39.5l-36 0q2 44 22 70q20 26 54 26q20 0 39 -9.5q19 -9.5 36.5 -21q17.5 -11.5 34.5 -21q17 -9.5 32 -9.5q23 0 31.5 17q8.5 17 10.5 40l36 0q-2 -44 -21.5 -71t-54.5 -27z" />
<glyph unicode="&#297;" horiz-adv-x="244" d="M196 593q-20 0 -39 10q-19 10 -37 21.5q-18 11.5 -34.5 21.5q-16.5 10 -32.5 10q-22 0 -30.5 -17.5q-8.5 -17.5 -10.5 -39.5l-36 0q2 44 22 70.5q20 26.5 54 26.5q20 0 39 -9.5q19 -9.5 36.5 -21.5q17.5 -12 34 -21.5q16.5 -9.5 31.5 -9.5q23 0 31.5 17q8.5 17 10.5 40l36 0q-2 -44 -21.5 -71q-19.5 -27 -53.5 -27zt0 0zM104 477h45v-477l-45 0z" />
<glyph unicode="&#298;" horiz-adv-x="269" d="M112 700h46v-700h-46zM19 848h233v-40l-233 0z" />
<glyph unicode="&#299;" horiz-adv-x="244" d="M8 663h230v-38h-230zM104 477h45v-477l-45 0z" />
<glyph unicode="&#300;" horiz-adv-x="269" d="M112 700h46v-700h-46zM135 763q-26 0 -49 10q-23 10 -40.5 27.5q-17.5 17.5 -27.5 41q-10 23.5 -11 51.5l40 0q1 -39 25.5 -65.5q24.5 -26.5 62.5 -26.5q38 0 63 26.5q25 26.5 26 65.5l39 0q0 -28 -10.5 -51.5q-10.5 -23.5 -27.5 -41q-17 -17.5 -40.5 -27.5t-49.5 -10z" />
<glyph unicode="&#301;" horiz-adv-x="244" d="M123 578q-26 0 -49 9.5q-23 9.5 -40.5 27q-17.5 17.5 -28 41q-10.5 23.5 -10.5 51.5l40 0q1 -38 25.5 -64.5q24.5 -26.5 62.5 -26.5q38 0 63 26.5q25 26.5 26 64.5l39 0q0 -28 -10.5 -51.5q-10.5 -23.5 -28 -41q-17.5 -17.5 -40.5 -27q-23 -9.5 -49 -9.5zt0 0zM104 477h45v-477l-45 0z" />
<glyph unicode="&#302;" horiz-adv-x="269" d="M187 -193q-50 0 -78 28.5q-28 28.5 -28 70.5q0 32 10 56q10 24 21 38l0 700h46v-700q-17 -19 -28 -40.5q-11 -21.5 -11 -48.5q0 -32 21.5 -51q21.5 -19 54.5 -19q11 0 20 1.5q9 1.5 20 4.5l0 -34q-8 -2 -19.5 -4t-28.5 -2z" />
<glyph unicode="&#303;" horiz-adv-x="254" d="M178 -193q-50 0 -78 28.5q-28 28.5 -28 70.5q0 32 10.5 56q10.5 24 21.5 38l0 477h45v-477q-17 -19 -28 -40.5q-11 -21.5 -11 -48.5q0 -32 21.5 -51q21.5 -19 54.5 -19q11 0 20 1.5q9 1.5 20 4.5l0 -34q-8 -2 -19.5 -4q-11.5 -2 -28.5 -2zt0 0zM126 608q-17 0 -27.5 10.5q-10.5 10.5 -10.5 27.5q0 16 10.5 27q10.5 11 27.5 11q16 0 27 -11q11 -11 11 -27q0 -17 -11 -27.5t-27 -10.5z" />
<glyph unicode="&#304;" horiz-adv-x="269" d="M112 700h46v-700h-46zM96 825q0 16 11 27q11 11 27 11q16 0 27 -11q11 -11 11 -27q0 -16 -11 -27q-11 -11 -27 -11q-16 0 -27 11t-11 27z" />
<glyph unicode="&#305;" horiz-adv-x="253" d="M104 477h45v-477l-45 0z" />
<glyph unicode="&#306;" horiz-adv-x="600" d="M112 700h46v-454h-46zM279 -12q-47 0 -89.5 11.5q-42.5 11.5 -77.5 36.5l0 52q30 -26 73 -40.5q43 -14.5 88 -14.5q185 0 185 185v482h46v-489q0 -114 -60 -168.5t-165 -54.5z" />
<glyph unicode="&#307;" horiz-adv-x="488" d="M104 477h45v-477h-45zM126 608q-17 0 -27.5 10.5q-10.5 10.5 -10.5 27.5q0 16 10.5 27q10.5 11 27.5 11q16 0 27 -11q11 -11 11 -27q0 -17 -11 -27.5q-11 -10.5 -27 -10.5zt0 0zM258 -204q-18 0 -40 4.5q-22 4.5 -37 13.5l0 43q14 -8 32.5 -13.5q18.5 -5.5 36.5 -5.5q89 0 89 103v536h45v-544q0 -40 -10.5 -66.5q-10.5 -26.5 -28.5 -42q-18 -15.5 -40.5 -22q-22.5 -6.5 -46.5 -6.5zt0 0zM361 608q-16 0 -27 10.5q-11 10.5 -11 27.5q0 16 11 27q11 11 27 11q17 0 27.5 -11q10.5 -11 10.5 -27q0 -17 -10.5 -27.5t-27.5 -10.5z" />
</font>
</defs>
</svg>
